<svg xmlns="http://www.w3.org/2000/svg" width="400" height="304.2"><g fill-rule="evenodd"><path d="M308.4.8l-1 1.1c0 .2-.7 1-1.6 2-1 .9-1.7 1.8-1.7 2 0 .2-.3.6-.8.8-.4.2-.7.5-.7.6l-.8 1-.7.9c0 .1-.6.9-1.4 1.7a54.5 54.5 0 00-5.9 6.7 195.8 195.8 0 00-9.4 10.7 56.8 56.8 0 00-5.3 5.9c0 .1-.6.9-1.5 1.7-.8.8-1.5 1.5-1.5 1.7L275 39l-1.6 1.8a33 33 0 01-2 2.1l-1.4 1.7c0 .1-.5.8-1.2 1.4l-2.2 2.4-2 2.3c-.5.5-1 1-1 1.2l-1.5 1.7a9 9 0 00-1.5 1.7l-1 1.2-1.6 1.7c-.3.5-1.3 1.7-2.2 2.6l-1.6 1.8-1.5 1.7-1.6 1.8a163.8 163.8 0 00-9.4 10.7c0 .1-.7 1-1.5 1.7-.9.9-1.5 1.6-1.5 1.8 0 .1-.7.9-1.6 1.7-.8.9-1.5 1.6-1.5 1.8l-1.5 1.7c-.8.8-1.5 1.6-1.5 1.8l-1.7 1.9c-1 .9-1.7 1.7-1.7 1.8 0 .2-.7 1-1.5 1.8l-1.5 1.8-1.2 1.3a81.3 81.3 0 00-6.4 7.4 77.7 77.7 0 00-4 4.3 916.3 916.3 0 00-13.8 15.9l-1.5 1.6a179 179 0 01-7 8l-1.8 2.1a46.8 46.8 0 00-4.5 5.2c0 .1-.7.9-1.6 1.7a8 8 0 00-1.4 1.6c0 .2-1 1.3-4.3 4.8a40.8 40.8 0 00-4 4.6 73 73 0 00-4.6 6c.2 0 .4.3.4.5s.2.6.5.9l1.6 1.7a62.7 62.7 0 004.3 4.9l1 1.2 2 2.2a36.6 36.6 0 003 3.5c0 .2.7 1 1.6 1.7a8 8 0 011.5 1.7c0 .2.8 1 1.7 2l1.6 1.9 1.6 1.7 1.5 1.7a32.6 32.6 0 012.6 3 67.3 67.3 0 003.8 4.2l1 1.2 1.5 1.8 2.1 2.4c.8.8 1.5 1.5 1.5 1.7a27 27 0 012.8 3.2 132.2 132.2 0 006.6 7.5c0 .3 2.5 2.8 2.8 2.8.1 0 .3.3.4.7.1.3.9 1.3 1.7 2a10 10 0 011.5 1.7l1.5 1.7 1.6 1.8a61.2 61.2 0 006.4 7.3c.1.3 2.6 3.2 4.7 5.3a10 10 0 011.6 2s.7.9 1.6 1.7c.8.7 1.5 1.5 1.5 1.6 0 .1.7 1 1.5 1.8l1.5 1.8c0 .2.7 1 1.6 1.8l2.2 2.4 1.6 1.9c.6.5 1 1 1 1.2l1.5 1.7c.9.8 1.6 1.6 1.6 1.7 0 .2.4.7 1 1.2 1.3 1.3 2.3 2.4 2.3 2.7l1.5 1.6 1.5 1.7c0 .2.7.8 1.4 1.6l1.6 1.7a90.5 90.5 0 006.5 7.5c0 .1.7 1 1.5 1.8l1.5 1.7c0 .1.7.9 1.6 1.7l1.5 1.7c0 .1.3.6 2.2 2.5a7 7 0 011.1 1.4l1.5 1.7 1.6 1.6a47 47 0 013 3.5 89.4 89.4 0 018.5 9.6l1 1.2 1.5 1.9 2.5 2.6.8 1h96.8v-.8c0-.5-.5-1.2-1.5-2.1a8.9 8.9 0 01-1.5-1.7l-1.2-1.4a5.6 5.6 0 01-1.2-1.6 29.2 29.2 0 01-3-3.5c-.9-.8-1.7-1.9-2-2.2l-3.9-4.4a128.5 128.5 0 00-6.6-7.6 319.2 319.2 0 00-7-8.1c-.4-.7-1.3-1.6-1.8-2.1-.6-.5-1-1-1-1.2l-1.5-1.7-2-2.3c-.8-1-1.7-2-2-2-.2 0-.3-.2-.3-.4s-.6-1-1.3-1.8a100.6 100.6 0 01-8.3-9.6 87.6 87.6 0 01-5.8-6.6 7.5 7.5 0 01-1.4-1.7l-1.4-1.6c-.8-.7-1.6-1.5-1.6-1.7a51.9 51.9 0 00-5.5-6.4 182 182 0 00-13.6-15.7l-1.7-2a71 71 0 01-4.2-5 18 18 0 00-1.7-1.8c-.6-.5-1-1-1-1.2l-1.4-1.7a29 29 0 01-2.1-2.3c-.7-1-1.7-2-2-2-.2 0-.3-.2-.3-.4s-.7-1.2-1.6-2.1a124.9 124.9 0 01-8-9.3 86 86 0 01-5.8-6.6 7.5 7.5 0 01-1.3-1.7l-1.5-1.6a10 10 0 01-1.6-1.7 46.3 46.3 0 00-5.4-6.4 196.8 196.8 0 01-9-10.5c-1.1-1.2-1-1.7 1-3.8a45.2 45.2 0 005-5.8l1.3-1.7 1.7-2c.7-.8 1.2-1.4 1.2-1.6 0-.1.4-.7 1-1.2s1.1-1 1.1-1.2c0-.2.5-.8 1-1.4l1.1-1.3 1-1.2 2-2.2a57.7 57.7 0 013.1-4c0-.2.3-.5 3-3.5.7-.7 1.3-1.4 1.3-1.6l1-1.4c2.2-2.3 2.6-2.8 3-3.5.2-.3.7-1 1.2-1.4.5-.4.9-.9.9-1 0-.3.4-.8 1-1.3s1.1-1 1.1-1.2l1-1.4 1.1-1.3.6-.8a53.6 53.6 0 004.7-5.5c.4-.4.8-.8.8-1 0-.1.4-.7 1-1.2 2.7-3 3.3-3.8 3.3-4 0-.2.4-.7.9-1.1.5-.4 1-1 1-1.2 0-.2 0-.4.3-.5a14 14 0 002-2.3 47 47 0 014-4.8l1-1.4c.7-.6 1.1-1.2 1.1-1.3l.8-1a94 94 0 005.7-7c.5-.2 3.3-3.5 3.3-3.8l1-1.2c.6-.6 1.1-1.3 1.1-1.5 0-.2.3-.6.7-.8.4-.2 1-.7 1.2-1.2l1.2-1.6 2.5-3c2.4-3 2.3-2.8 5.7-6.7l1.2-1.6a59.5 59.5 0 004.6-5.6 33 33 0 012.4-2.8 31 31 0 001.7-2l1.1-1.4c.3-.2.5-.5.5-.7l1-1.2c1.2-1.2 2.7-3.1 3.1-3.8a7 7 0 011.2-1.3l.8-1c0-.2.5-.8 1-1.3.7-.6 1.2-1.2 1.2-1.3 0-.2.4-.8 1-1.4.6-.5 1-1 1-1.2l1-1c.4-.5 1-1.1 1-1.4.5-.6 2-2.5 3.2-3.7l1-1.3c0-.2.2-.5.5-.7l1.1-1.3 1.6-2a49 49 0 002.5-3 57.7 57.7 0 014.7-5.5c.1-.3 1.8-2.4 3.2-3.9l1-1.3c0-.2.2-.4.4-.6l1.3-1.4 1.7-2.1 2.5-3.1a23 23 0 011.5-1.7c1.5-1.6 4-1.5-44.8-1.5h-45.4l-.9.8" fill="#d41c34"/><path d="M0 152.4v152h128.3c111.2 0 128.3 0 128.3-.4 0-.3-.7-1.2-1.5-2a9.8 9.8 0 01-1.5-1.8c0-.1-.5-.7-1.2-1.3l-1.7-2-2-2.3a10 10 0 01-1.5-1.7l-1.5-1.6a8.9 8.9 0 01-1.6-1.7c0-.2-.7-1-1.6-2-1-1-1.7-1.8-1.7-2a9 9 0 00-1.5-1.6 8.4 8.4 0 01-1.6-1.7c0-.2-.2-.5-.5-.8l-1.6-1.7a60 60 0 00-4.2-4.8 27.6 27.6 0 01-3-3.5 31 31 0 00-3.1-3.4c0-.2-.7-1-1.6-1.8a9.2 9.2 0 01-1.5-1.7c0-.1-.7-1-1.7-2-.9-.9-1.6-1.8-1.6-1.9l-1.5-1.7a8.6 8.6 0 01-1.6-1.7l-1.5-1.7a8.9 8.9 0 01-1.5-1.7l-1.7-2c-1-.9-1.7-1.7-1.7-1.9l-1.5-1.7a9.6 9.6 0 01-1.5-1.7l-1.5-1.8a11 11 0 01-1.6-1.8l-1.6-1.8c-1-.8-1.7-1.7-1.7-1.8 0-.2-.7-1-1.5-1.9-.9-.8-1.5-1.6-1.5-1.7 0-.1-.7-.9-1.6-1.7a8.8 8.8 0 01-1.5-1.7 8 8 0 00-1.5-1.7l-2-2.2-.5-.8H66v-151h16.2a90 90 0 0116.1.4c0 .2.6 1 1.2 1.6l1.3 1.4c0 .2.6.9 1.3 1.6.8.8 1.4 1.5 1.4 1.7 0 .1.4.6 1 1.1l1.9 2.1 1.7 2 .9 1.1c0 .2.4.6.8 1 .5.4 1.3 1.3 1.8 2s1.3 1.6 1.9 2.1c.5.5 1 1 1 1.2 0 .2.6.9 1.3 1.6.8.7 1.4 1.4 1.4 1.6l.5.7c1 .8 2 2 2 2.2 0 .1.6.9 1.5 1.7a8 8 0 011.5 1.8c0 .1.6.8 1.3 1.4a8 8 0 011.5 1.6c0 .4 1.4 2 4 4.7l1.4 1.7c0 .2.5.8 1.2 1.4.7.6 1.2 1.3 1.2 1.4 0 .3.5.8 4.4 5 .8.8 1.4 1.6 1.4 1.7 0 .2.6.8 1.2 1.5l1.3 1.4 1.3 1.5c.7.8 1.5 1.5 1.6 1.8a47 47 0 005.3 6.2c0 .2.8 1 1.6 2a169.5 169.5 0 016.2 7c.7 1 1.4 1 2.1 0l2.2-2.4a11 11 0 001.6-1.8l1.5-1.8 1.5-1.7c0-.2.7-1 1.5-1.8.9-.8 1.6-1.6 1.6-1.7 0-.1.4-.7 1-1.2l1.9-2.1c.5-.7 1.4-1.8 2.2-2.5l1.3-1.5c0-.1.6-.9 1.5-1.7l1.5-1.7c0-.2.2-.5.5-.8l1.7-1.8a110.8 110.8 0 013.9-4.4s.7-1 1.7-1.9c.9-.9 1.6-1.8 1.6-1.9l1.5-1.7c.9-.8 1.6-1.6 1.6-1.7 0-.2.4-.7 1-1.2a88.6 88.6 0 016.8-7.6l1.6-2c0-.2.2-.4.4-.6l1.6-1.6 5-5.7c.7-.9.8-1.7.2-2.1l-1.2-1.5c-.5-.7-1.3-1.6-1.8-2l-.8-1c0-.2-.6-.8-1.2-1.4a55.4 55.4 0 01-4.3-5l-1.4-1.6A7 7 0 01196 75c0-.2-.1-.4-.4-.5l-1.8-2a27 27 0 00-2.4-2.7l-.8-1c0-.2-.7-.9-1.4-1.6a6.7 6.7 0 01-1.4-1.6c0-.2-.5-.8-1.2-1.5a6.5 6.5 0 01-1.2-1.5l-1.5-1.6a7.6 7.6 0 01-1.6-1.8c0-.2-.3-.6-.8-1s-1.2-1.3-1.7-2l-1.8-2c-.5-.4-.8-1-.8-1 0-.2-.7-1-1.6-1.8a8.3 8.3 0 01-1.5-1.7c0-.1-.5-.8-1.2-1.4a6.8 6.8 0 01-1.2-1.4l-1.4-1.6-1.6-1.8a47.3 47.3 0 00-5.2-6.1l-1-1.2-1.7-1.9a63.8 63.8 0 00-5.6-6.5l-1.6-2c-3.1-3.4-5-5.7-5-6l-.8-.5c-.4-.2-.8-.6-.8-.8 0-.4-.5-1-4.2-5a9.1 9.1 0 01-1.3-1.5 326.6 326.6 0 01-9.2-10.7l-.7-.9H0v152" fill="#343434"/></g></svg>