<svg xmlns="http://www.w3.org/2000/svg" xmlns:xlink="http://www.w3.org/1999/xlink" viewBox="0 0 39 66" fill="#fff" fill-rule="evenodd" stroke="#000" stroke-linecap="round" stroke-linejoin="round"><use xlink:href="#A" x=".5" y=".5"/><symbol id="A" overflow="visible"><g stroke="none" fill-rule="nonzero"><path d="M0 15.254h6.072v28.8c0 7.846 4.366 14.26 12.758 14.26s12.758-6.447 12.758-14.26v-28.8h6.072V45.82C37.66 56.2 29.814 64 18.728 64 7.88 64 .035 56.154.035 45.818V15.254z" fill="#52984c"/><path d="M23.545 4.737a4.74 4.74 0 0 1-4.737 4.737 4.74 4.74 0 0 1-4.737-4.737A4.73 4.73 0 0 1 18.808 0c2.58 0 4.695 2.115 4.737 4.737m-1.142 43.226v-13.66h3.34V15.057a3.07 3.07 0 0 0-3.003-3.13h-7.698c-1.734 0-3.13 1.396-3.13 3.13V34.3h3.13v18.483h7.36z" fill="#63666a"/></g></symbol></svg>