<?xml version="1.0" encoding="UTF-8" standalone="no"?><!-- Generator: Gravit.io --><svg xmlns="http://www.w3.org/2000/svg" xmlns:xlink="http://www.w3.org/1999/xlink" style="isolation:isolate" viewBox="0 0 400 400" width="400pt" height="400pt"><defs><clipPath id="_clipPath_YupoRzBBTBiJVYAbanHc3UR23n5bCIsg"><rect width="400" height="400"/></clipPath></defs><g clip-path="url(#_clipPath_YupoRzBBTBiJVYAbanHc3UR23n5bCIsg)"><ellipse vector-effect="non-scaling-stroke" cx="200.00000000000054" cy="315.04765498371825" rx="165.34999999999934" ry="50.20234501628261" fill="rgb(255,255,255)" stroke-width="15" stroke="rgb(0,0,0)" stroke-linejoin="miter" stroke-linecap="square" stroke-miterlimit="3"/><rect x="287.14" y="254.358" width="75.867" height="60.243" transform="matrix(1,0,0,1,0,0)" fill="rgb(255,255,255)"/><rect x="37.997" y="254.191" width="75.867" height="60.243" transform="matrix(1,0,0,1,0,0)" fill="rgb(255,255,255)"/><ellipse vector-effect="non-scaling-stroke" cx="200.00000000000028" cy="238.82265535546856" rx="165.34999999999945" ry="50.20234501628262" fill="rgb(255,255,255)" stroke-width="15" stroke="rgb(0,0,0)" stroke-linejoin="miter" stroke-linecap="square" stroke-miterlimit="3"/><rect x="37.997" y="178.496" width="75.867" height="60.243" transform="matrix(1,0,0,1,0,0)" fill="rgb(255,255,255)"/><rect x="284.789" y="180.728" width="75.867" height="60.243" transform="matrix(1,0,0,1,0,0)" fill="rgb(255,255,255)"/><ellipse vector-effect="non-scaling-stroke" cx="199.99999999999935" cy="161.92927404124842" rx="165.34999999999962" ry="50.20234501628266" fill="rgb(255,255,255)" stroke-width="15" stroke="rgb(0,0,0)" stroke-linejoin="miter" stroke-linecap="square" stroke-miterlimit="3"/><rect x="37.997" y="101.686" width="75.867" height="60.243" transform="matrix(1,0,0,1,0,0)" fill="rgb(255,255,255)"/><rect x="287.02" y="101.603" width="75.867" height="60.243" transform="matrix(1,0,0,1,0,0)" fill="rgb(255,255,255)"/><ellipse vector-effect="non-scaling-stroke" cx="200.00000000000054" cy="84.95234501628184" rx="165.34999999999968" ry="50.20234501628266" fill="rgb(255,255,255)" stroke-width="15" stroke="rgb(0,0,0)" stroke-linejoin="miter" stroke-linecap="square" stroke-miterlimit="3"/><line x1="365.23" y1="91.562" x2="365.23" y2="159.698" vector-effect="non-scaling-stroke" stroke-width="15" stroke="rgb(0,0,0)" stroke-linejoin="miter" stroke-linecap="square" stroke-miterlimit="3"/><line x1="34.985" y1="88.648" x2="34.985" y2="156.784" vector-effect="non-scaling-stroke" stroke-width="15" stroke="rgb(0,0,0)" stroke-linejoin="miter" stroke-linecap="square" stroke-miterlimit="3"/><line x1="34.65" y1="165.276" x2="34.65" y2="233.412" vector-effect="non-scaling-stroke" stroke-width="15" stroke="rgb(0,0,0)" stroke-linejoin="miter" stroke-linecap="square" stroke-miterlimit="3"/><line x1="365.23" y1="167.507" x2="365.23" y2="235.643" vector-effect="non-scaling-stroke" stroke-width="15" stroke="rgb(0,0,0)" stroke-linejoin="miter" stroke-linecap="square" stroke-miterlimit="3"/><line x1="365.35" y1="241.137" x2="365.35" y2="309.273" vector-effect="non-scaling-stroke" stroke-width="15" stroke="rgb(0,0,0)" stroke-linejoin="miter" stroke-linecap="square" stroke-miterlimit="3"/><line x1="34.65" y1="240.97" x2="34.65" y2="309.106" vector-effect="non-scaling-stroke" stroke-width="15" stroke="rgb(0,0,0)" stroke-linejoin="miter" stroke-linecap="square" stroke-miterlimit="3"/><ellipse vector-effect="non-scaling-stroke" cx="71.00330275192493" cy="154.4809461096007" rx="10.712433492280752" ry="10.711603221989577" fill="rgb(0,0,0)"/><ellipse vector-effect="non-scaling-stroke" cx="71.00330275192493" cy="231.37432742382111" rx="10.712433492280752" ry="10.711603221989577" fill="rgb(0,0,0)"/><ellipse vector-effect="non-scaling-stroke" cx="71.00330275192493" cy="307.06855336026655" rx="10.712433492280752" ry="10.711603221989606" fill="rgb(0,0,0)"/></g></svg>