<?xml version="1.0" encoding="UTF-8" standalone="no"?><!-- Generator: Gravit.io --><svg xmlns="http://www.w3.org/2000/svg" xmlns:xlink="http://www.w3.org/1999/xlink" style="isolation:isolate" viewBox="0 0 400 400" width="400pt" height="400pt"><defs><clipPath id="_clipPath_0oU3bGDwyAFkGEDaGpR2NEmnXagrpEFy"><rect width="400" height="400"/></clipPath></defs><g clip-path="url(#_clipPath_0oU3bGDwyAFkGEDaGpR2NEmnXagrpEFy)"><g><path d=" M 177.403 80.014 L 175.412 91.55 L 235.056 128.433 L 222.585 82.889 L 177.403 80.014 Z " fill="rgb(255,255,255)"/><path d=" M 158.522 154.812 L 142.846 218.437 L 279.294 302.396 L 256.264 211.775 L 158.522 154.812 Z " fill="rgb(255,255,255)"/><path d=" M 128.335 279.187 L 120.693 306.959 L 125.139 326.323 L 162.023 354.908 L 199.994 370.583 L 241.511 350.297 L 128.335 279.187 Z " fill="rgb(255,255,255)"/><path d=" M 174.198 91.55 L 235.056 128.433 L 261.609 214.749 L 158.522 154.812 L 174.198 91.55 Z " fill="rgb(255,255,255)"/><path d=" M 142.846 218.437 L 279.294 302.396 L 277.304 319.868 L 256.264 341.998 L 241.511 350.297 L 128.093 275.969 L 142.846 218.437 Z " fill="rgb(255,255,255)"/><path d=" M 177.623 79.915 Q 132.389 36.883 150.421 31.965 Q 188.496 26.868 248.855 31.965 Q 268.398 34.117 222.806 79.915 L 222.806 79.915 L 222.806 79.915 L 177.623 79.915 Z " fill="rgb(255,255,255)" vector-effect="non-scaling-stroke" stroke-width="15" stroke="rgb(57,28,28)" stroke-linejoin="miter" stroke-linecap="square" stroke-miterlimit="3"/><path d=" M 177.403 80.014 Q 134.081 251.141 120.693 303.171 Q 114.41 337.15 199.994 370.583 Q 285.672 336.813 279.294 302.396 Q 264.234 243.056 222.585 80.014 L 222.585 80.014 L 177.403 80.014 Z " fill="none" vector-effect="non-scaling-stroke" stroke-width="15" stroke="rgb(57,28,28)" stroke-linejoin="miter" stroke-linecap="square" stroke-miterlimit="3"/><line x1="174.198" y1="91.55" x2="235.056" y2="128.433" vector-effect="non-scaling-stroke" stroke-width="15" stroke="rgb(57,28,28)" stroke-linejoin="miter" stroke-linecap="butt" stroke-miterlimit="3"/><line x1="158.522" y1="154.812" x2="256.264" y2="214.749" vector-effect="non-scaling-stroke" stroke-width="15" stroke="rgb(57,28,28)" stroke-linejoin="miter" stroke-linecap="butt" stroke-miterlimit="3"/><line x1="142.846" y1="218.437" x2="278.372" y2="302.396" vector-effect="non-scaling-stroke" stroke-width="15" stroke="rgb(57,28,28)" stroke-linejoin="miter" stroke-linecap="butt" stroke-miterlimit="3"/><line x1="128.093" y1="275.969" x2="241.511" y2="350.297" vector-effect="non-scaling-stroke" stroke-width="15" stroke="rgb(57,28,28)" stroke-linejoin="miter" stroke-linecap="butt" stroke-miterlimit="3"/></g></g></svg>