<?xml version="1.0" encoding="iso-8859-1"?>
<!-- Generator: Adobe Illustrator 19.0.0, SVG Export Plug-In . SVG Version: 6.00 Build 0)  -->
<svg version="1.1" id="Capa_1" xmlns="http://www.w3.org/2000/svg" xmlns:xlink="http://www.w3.org/1999/xlink" x="0px" y="0px"
	 viewBox="0 0 512 512" style="enable-background:new 0 0 512 512;" xml:space="preserve">
<g>
	<rect x="105.931" y="44.138" style="fill:#3B97D3;" width="300.138" height="414.897"/>
	<g>
		<path style="fill:#2C3E50;" d="M406.069,70.621V17.655C406.04,7.917,398.152,0.029,388.414,0H123.586
			c-9.739,0.029-17.626,7.917-17.655,17.655v52.966H406.069z"/>
		<path style="fill:#2C3E50;" d="M406.069,432.552v61.793c-0.029,9.739-7.917,17.626-17.655,17.655H123.586
			c-9.739-0.029-17.626-7.917-17.655-17.655v-61.793H406.069z"/>
	</g>
	<path style="fill:#35495E;" d="M264.828,485.517h-17.655c-4.875,0-8.828-3.952-8.828-8.828s3.952-8.828,8.828-8.828h17.655
		c4.875,0,8.828,3.952,8.828,8.828S269.703,485.517,264.828,485.517z"/>
	<path style="fill:#2980BA;" d="M406.069,105.931c0,0-70.621,256-300.138,264.828v61.793h300.138V105.931z"/>
	<g>
		<path style="fill:#89C1E5;" d="M132.414,150.069c-4.875,0-8.828-3.952-8.828-8.828V97.103c0-4.875,3.952-8.828,8.828-8.828
			c4.875,0,8.828,3.952,8.828,8.828v44.138C141.241,146.117,137.289,150.069,132.414,150.069z"/>
		<circle style="fill:#89C1E5;" cx="132.414" cy="176.552" r="8.828"/>
	</g>
</g>
<g>
</g>
<g>
</g>
<g>
</g>
<g>
</g>
<g>
</g>
<g>
</g>
<g>
</g>
<g>
</g>
<g>
</g>
<g>
</g>
<g>
</g>
<g>
</g>
<g>
</g>
<g>
</g>
<g>
</g>
</svg>
