<?xml version="1.0" encoding="UTF-8" standalone="no"?><!-- Generator: Gravit.io --><svg xmlns="http://www.w3.org/2000/svg" xmlns:xlink="http://www.w3.org/1999/xlink" style="isolation:isolate" viewBox="0 0 48 48" width="48pt" height="48pt"><defs><clipPath id="_clipPath_czzUdaZrQQ9UBqYKdIuMMbTKUBPabCyY"><rect width="48" height="48"/></clipPath></defs><g clip-path="url(#_clipPath_czzUdaZrQQ9UBqYKdIuMMbTKUBPabCyY)"><g><path d=" M 32.824 44.856 L 15.118 44.856 C 13.026 44.856 11.096 41.905 11.096 38.278 L 11.096 7.578 C 11.096 3.952 13.026 1 15.118 1 L 32.824 1 C 34.916 1 36.846 3.952 36.846 7.578 L 36.846 38.278 C 36.846 41.905 34.916 44.856 32.824 44.856 Z  M 15.904 7.578 L 15.904 38.278 L 32.038 38.278 L 32.038 7.578 L 15.904 7.578 Z " fill="rgb(0,0,0)"/><rect x="14.688" y="7.845" width="18.566" height="30.167" transform="matrix(1,0,0,1,0,0)" fill="rgb(255,255,255)" vector-effect="non-scaling-stroke" stroke-width="1" stroke="rgb(255,255,255)" stroke-linejoin="round" stroke-linecap="round" stroke-miterlimit="2"/><circle vector-effect="non-scaling-stroke" cx="23.971106982735137" cy="41.48889846489157" r="1.8952250345268418" fill="rgb(235,235,235)"/><line x1="21.653" y1="4.509" x2="26.289" y2="4.509" vector-effect="non-scaling-stroke" stroke-width="1" stroke="rgb(255,255,255)" stroke-linejoin="round" stroke-linecap="round" stroke-miterlimit="3"/></g></g></svg>