<?xml version="1.0" encoding="UTF-8" standalone="no"?><!-- Generator: Gravit.io --><svg xmlns="http://www.w3.org/2000/svg" xmlns:xlink="http://www.w3.org/1999/xlink" style="isolation:isolate" viewBox="0 0 400 400" width="400pt" height="400pt"><defs><clipPath id="_clipPath_7GTYKKgYenTlu6cDf3xodDzVWIQsxB9L"><rect width="400" height="400"/></clipPath></defs><g clip-path="url(#_clipPath_7GTYKKgYenTlu6cDf3xodDzVWIQsxB9L)"><defs><filter id="86jnB99o5LAVfbVlqYKUWRuK5VA1HYaK" x="-200%" y="-200%" width="400%" height="400%" filterUnits="objectBoundingBox" color-interpolation-filters="sRGB"><feGaussianBlur xmlns="http://www.w3.org/2000/svg" stdDeviation="0"/></filter></defs><g filter="url(#86jnB99o5LAVfbVlqYKUWRuK5VA1HYaK)"><path d=" M 358.349 246.002 Q 342.97 290.95 317.264 314.694 Q 290.73 299.922 277.19 292.396 Q 258.691 308.062 237.514 313.935 Q 238.206 338.276 238.663 359.276 Q 201.238 369.957 160.444 360.038 Q 159.5 332.545 158.869 313.935 Q 137.835 305.622 119.619 290.129 L 82.024 314.694 Q 53.681 286.291 41.651 246.141 L 79.757 223.469 Q 74.99 200.801 78.623 177.925 Q 61.317 167.606 41.651 155.968 Q 49.729 119.573 80.89 86.086 Q 95.561 94.205 118.485 106.485 Q 135.427 91.319 157.028 82.68 Q 158.114 62.858 158.869 40.42 C 192.374 33.214 214.196 33.923 240.032 39.658 Q 239.97 47.68 240.032 82.68 Q 263.314 91.484 280.019 105.352 Q 293.847 97.716 317.499 85.002 Q 348.402 116.376 357.967 156.084 C 345.773 163.197 342.089 165.181 320.267 177.925 Q 323.821 200.66 320.267 223.33 Q 339.443 234.457 358.349 246.002 Z  M 197.789 258.974 C 230.316 258.644 253.638 233.043 256.018 201.202 C 256.33 170.411 234.946 139.488 198.922 138.732 C 169.197 139.488 141.049 164.822 142.57 201.08 C 144.371 233.893 171.912 258.707 197.789 258.974 Z " fill="rgb(255,255,255)"/></g><defs><filter id="IQunixAsDvmQMYWWE2m2ppVMNfmlVoq8" x="-200%" y="-200%" width="400%" height="400%" filterUnits="objectBoundingBox" color-interpolation-filters="sRGB"><feGaussianBlur xmlns="http://www.w3.org/2000/svg" stdDeviation="0"/></filter></defs><g filter="url(#IQunixAsDvmQMYWWE2m2ppVMNfmlVoq8)"><path d=" M 358.349 246.002 Q 342.97 290.95 317.264 314.694 Q 290.73 299.922 277.19 292.396 Q 258.691 308.062 237.514 313.935 Q 238.206 338.276 238.663 359.276 Q 201.238 369.957 160.444 360.038 Q 159.5 332.545 158.869 313.935 Q 137.835 305.622 119.619 290.129 L 82.024 314.694 Q 53.681 286.291 41.651 246.141 L 79.757 223.469 Q 74.99 200.801 78.623 177.925 Q 61.317 167.606 41.651 155.968 Q 49.729 119.573 80.89 86.086 Q 95.561 94.205 118.485 106.485 Q 135.427 91.319 157.028 82.68 Q 158.114 62.858 158.869 40.42 C 192.374 33.214 214.196 33.923 240.032 39.658 Q 239.97 47.68 240.032 82.68 Q 263.314 91.484 280.019 105.352 Q 293.847 97.716 317.499 85.002 Q 348.402 116.376 357.967 156.084 C 345.773 163.197 342.089 165.181 320.267 177.925 Q 323.821 200.66 320.267 223.33 Q 339.443 234.457 358.349 246.002 Z  M 197.789 258.974 C 230.316 258.644 253.638 233.043 256.018 201.202 C 256.33 170.411 234.946 139.488 198.922 138.732 C 169.197 139.488 141.049 164.822 142.57 201.08 C 144.371 233.893 171.912 258.707 197.789 258.974 Z " fill="none" vector-effect="non-scaling-stroke" stroke-width="20" stroke="rgb(0,0,0)" stroke-linejoin="round" stroke-linecap="round" stroke-miterlimit="4"/></g></g></svg>