<svg xmlns="http://www.w3.org/2000/svg" width="512" height="512" viewBox="-1 -1 60 60">
    <g fill-rule="nonzero" fill="none">
        <path d="M54.79 25.57c-.1333333.28-.2633333.58-.39.9l-4.69 11.32L44.28 30l2.73-6.6c.12-.3.24-.59.34-.86l7.44 3.03Z" fill="#E64C3C"/>
        <path d="M39.72 22.09c-.1 2-.31 4-.61 6l-6.98 1.13a49.35900427 49.35900427 0 0 1 .14-7.59v-.01l7.45.47Z" fill="#4482C3"/>
        <path d="M22.79 9.85s.88 7.783-2.04 8.462C17.83 18.991 15 11.68 15 11.68l.19-5.12c.83.3.922-3.132 1.852-3.352.93-.22 2.698 2.782 3.308 2.142l2.44 4.5Z" fill="#FDD7AD"/>
        <path d="M28.05 32.34 26 39l-.56-.48L20.23 34 15 11.68s1.66 2.69 4.58 2 3.21-3.83 3.21-3.83l5.26 22.49Z" fill="#E64C3C"/>
        <path d="M25.44 38.52 20.23 34 15 11.68s1.66 2.69 4.58 2l5.86 24.84Z" fill="#C03A2B"/>
        <path d="M16.08 34.57 16 47l-7.89-2.92L.13 24.83c-.10264105-.2452731-.10337829-.5213244-.00204878-.7671422C.22928072 23.8170399.42433352 23.621696.67 23.52l8.32-3.44c.51086414-.2090364 1.0948377.0316856 1.31.54l.76 1.85.38.92.38.92.77 1.85.38.92.39.93.76 1.85.38.92.38.92 1.16 2.78.04.09Z" fill="#F0C419"/>
        <path d="m11.82 24.31-4.61 1.92c-.12452091.0473646-.25677971.0711034-.39.07-.47298523-.0055608-.87737889-.341763-.96921562-.8057802C5.75894764 25.0302026 6.00479082 24.5653077 6.44 24.38l4.62-1.91.38.92.38.92ZM13.36 28.01l-2.78 1.15c-.1208103.0481669-.2499563.071957-.38.07-.47298523-.0055608-.87737889-.341763-.96921562-.8057802C9.13894764 27.9602026 9.38479082 27.4953077 9.82 27.31l2.77-1.15.38.92.39.93ZM14.88 31.7l-4.61 1.92c-.1212958.0464617-.2501103.0701906-.38.07-.47483245-.0009089-.88355298-.3356076-.97807326-.8009382C8.81740645 32.4237311 9.06315247 31.9560939 9.5 31.77l4.62-1.91.38.92.38.92Z" fill="#B19046"/>
        <path d="M58 51c0 1.8565154-.7374979 3.6369928-2.0502525 4.9497475C54.6369928 57.2625021 52.8565154 58 51 58H7c-3.86599325 0-7-3.1340068-7-7s3.13400675-7 7-7c.67727824-.001899 1.35115423.095813 2 .29.07821851-3.9392744 2.3551884-7.5032155 5.8968071-9.2297546C18.4384259 33.3337063 22.6485418 33.735193 25.8 36.1c2.126459-5.6544479 7.9924343-8.9790345 13.936068-7.8983739C45.6797017 29.2822868 50 34.4589232 50 40.5c.0025891 1.2440547-.1828377 2.4813577-.55 3.67A7.21699825 7.21699825 0 0 1 51 44c1.8565154 0 3.6369928.7374979 4.9497475 2.0502525C57.2625021 47.3630072 58 49.1434846 58 51Z" fill="#E6E7E8" stroke="#BDC3C7" stroke-width="2"/>
        <path d="M20.35 5.35c-.6306138.7203034-1.4523147 1.24730149-2.37 1.52-.9406487.16104676-1.9076456.05360266-2.79-.31l.19-5.28c.0199694-.58779203.4286577-1.09047866 1-1.23a1.42799998 1.42799998 0 0 1 .29-.03c.4842737-.00133232.9300262.26381358 1.16.69l2.52 4.64Z" fill="#2C2F38"/>
        <path d="M39.72 22.09c-2.4931181.1258217-4.9924611-.031855-7.45-.47.15-1.63.37-3.24.63-4.85 2.25.14 4.52.28 6.83.42a44.50001465 44.50001465 0 0 1-.01 4.9Z" fill="#95A5A5"/>
        <path d="M32.9 16.77s-4.022-3.647-.375-7.67c3.032-3.344 4.237-5.627 4.16-7.791-.0081272-.20275619.108562-.3898597.2942186-.47176054C37.1648752.75533863 37.3817325.79530096 37.526.938c2.463 2.411 8.019 9.141 2.145 16.25" fill="#805333"/>
        <path d="M37.685 14.7c-.3787721 0-.7250352-.2140024-.8944272-.5527864S36.6577368 13.4030176 36.885 13.1c.8762783-1.2008674 1.2346669-2.7028579.995-4.17-.1015489-.34829307-.0064948-.72426686.2483835-.98244764.2548782-.25818078.6295972-.35806705.9791687-.26101029.3495714.09705676.6191572.375831.7044478.72845793.4009189 2.0623188-.081551 4.1982456-1.33 5.888-.1888447.249833-.4838247.3967678-.797.397Z" fill="#603E26"/>
        <path d="M24.78 52c-.4007992.0000139-.7628867-.2392787-.92-.608-.323614-.7559296-.4903172-1.5697133-.49-2.392-.0016548-2.810518 1.9478303-5.245569 4.6906066-5.8589142C30.8033828 42.5277405 33.604374 43.9004803 34.8 46.444c.2352733.4998177.0208176 1.0957266-.479 1.3309999-.4998177.2352733-1.0957267.0208178-1.331-.4789999-.652302-1.4087442-2.0675987-2.306402-3.62-2.296-2.209139 0-4 1.790861-4 4-.0002415.5528385.1120372 1.0999423.33 1.608.1039737.2439982.1067566.5193072.0077364.7653573-.0990202.2460502-.2917315.4426846-.5357364.5466427-.1238521.0530935-.2572478.0803171-.392.08Z" fill="#BDC3C7"/>
        <path d="M40 49.33c-.3917318.00007-.7474313-.228594-.91-.585-.4891364-1.0620268-1.5507474-1.743097-2.72-1.745-.6750563-.0015018-1.3301935.2286433-1.856.652-.4318867.3443495-1.0611505.2733867-1.4055-.1585-.3443495-.4318867-.2733867-1.0611505.1585-1.4055.8791855-.7073719 1.9745806-1.0914486 3.103-1.088 1.9527138.0017705 3.7257188 1.1401647 4.54 2.915.1412095.3095793.1153118.6697181-.0687395.9559078S40.3402638 49.3300608 40 49.33ZM14 44c-.5522847 0-1-.4477153-1-1 0-3.678 3.533-4.9 3.684-4.949.5246705-.1761788 1.0928211.1063295 1.2689999.631.1761789.5246705-.1063294 1.0928211-.6309999 1.269-1.3212322.4506623-2.2387937 1.6555052-2.322 3.049 0 .5522847-.4477153 1-1 1ZM31 37a.9760014.9760014 0 0 1-.244-.03c-.5357071-.1342174-.8611901-.677286-.727-1.213.6715774-2.7624591 3.1283242-4.7197099 5.971-4.757.5522847-.0013807 1.0011193.4452153 1.0025.9975.0013807.5522847-.4452153 1.0011193-.9975 1.0025-1.9222671.04782-3.5748292 1.376013-4.035 3.243-.1114591.4449311-.5113206.7569879-.97.757Z" fill="#BDC3C7"/>
        <path d="M57.94 20.11c.0325197.1605106-.011876.3269944-.12.45-1.2784853 1.4921213-2.302214 3.1848211-3.03 5.01-.3534073.2634741-.7539313.4569476-1.18.57-1.0919548.288694-2.249953.193371-3.28-.27-.01 0-.01-.01-.02-.01-1.0662622-.3978779-1.960776-1.1545022-2.53-2.14-.212557-.3645423-.3581843-.7641706-.43-1.18.7765753-1.8212487 1.2527524-3.7563513 1.41-5.73.0080462-.1650872.0981212-.3152123.24-.4l5.61-3.5 1.45-.91.39 1.67 1.49 6.44Z" fill="#F0C419"/>
        <path d="m56.06 12-3.05 7.39H53l-2.67 6.48c-.01 0-.01-.01-.02-.01-1.0662622-.3978779-1.960776-1.1545022-2.53-2.14-.212557-.3645423-.3581843-.7641706-.43-1.18.7765753-1.8212487 1.2527524-3.7563513 1.41-5.73.0080462-.1650872.0981212-.3152123.24-.4l5.61-3.5 1.45-.91Z" fill="#F3D55B"/>
        <path d="m56.45 13.67-2.15 5.18c-.1534036.3734255-.5162981.6179849-.92.62-.1274636-.0014658-.2533163-.0286772-.37-.08H53c-.3748601-.1516384-.6201595-.515631-.62-.92.0024296-.1338165.0295511-.2660336.08-.39l2.15-5.17 1.45-.91.39 1.67Z" fill="#E57E25"/>
    </g>
</svg>