<?xml version="1.0" encoding="UTF-8"?>
<svg xmlns="http://www.w3.org/2000/svg" xmlns:xlink="http://www.w3.org/1999/xlink" width="54px" height="58px" viewBox="0 0 54 58" version="1.1">
    <!-- Generator: Sketch 41.1 (35376) - http://www.bohemiancoding.com/sketch -->
    <title>61 -Diagram- (marketing, business, finance)</title>
    <desc>Created with Sketch.</desc>
    <defs/>
    <g id="Page-1" stroke="none" stroke-width="1" fill="none" fill-rule="evenodd">
        <g id="Icons" transform="translate(-123.000000, -1072.000000)">
            <g id="61--Diagram--(marketing,-business,-finance)" transform="translate(123.000000, 1072.000000)">
                <path d="M27.0005,51 C26.7095,51 26.4215,50.874 26.2245,50.631 L13.2245,34.631 C12.8755,34.202 12.9405,33.572 13.3695,33.224 C13.7965,32.877 14.4285,32.941 14.7755,33.369 L27.7755,49.369 C28.1245,49.798 28.0595,50.428 27.6305,50.776 C27.4455,50.927 27.2225,51 27.0005,51" id="Fill-96" fill="#8697CB"/>
                <path d="M5.999,51 C5.849,51 5.696,50.966 5.553,50.895 C5.059,50.647 4.858,50.047 5.105,49.553 L13.105,33.553 C13.353,33.059 13.952,32.86 14.447,33.105 C14.941,33.353 15.142,33.953 14.895,34.447 L6.895,50.447 C6.719,50.798 6.366,51 5.999,51" id="Fill-97" fill="#8697CB"/>
                <path d="M26.9995,51 C26.7775,51 26.5545,50.927 26.3695,50.776 C25.9405,50.428 25.8755,49.798 26.2245,49.369 L39.2245,33.369 C39.5725,32.941 40.2035,32.877 40.6305,33.224 C41.0595,33.572 41.1245,34.202 40.7755,34.631 L27.7755,50.631 C27.5785,50.874 27.2905,51 26.9995,51" id="Fill-98" fill="#8697CB"/>
                <path d="M48.001,51 C47.634,51 47.281,50.798 47.105,50.447 L39.105,34.447 C38.858,33.953 39.059,33.353 39.553,33.105 C40.048,32.86 40.647,33.059 40.895,33.553 L48.895,49.553 C49.142,50.047 48.941,50.647 48.447,50.895 C48.304,50.966 48.151,51 48.001,51" id="Fill-99" fill="#8697CB"/>
                <path d="M12,25 C11.733,25 11.466,24.894 11.269,24.683 C10.892,24.278 10.914,23.646 11.318,23.269 L26.318,9.269 C26.721,8.894 27.354,8.914 27.731,9.317 C28.108,9.722 28.086,10.354 27.682,10.731 L12.682,24.731 C12.49,24.911 12.245,25 12,25" id="Fill-100" fill="#8697CB"/>
                <path d="M42,25 C41.755,25 41.51,24.911 41.318,24.731 L26.318,10.731 C25.914,10.354 25.892,9.722 26.269,9.317 C26.646,8.913 27.28,8.893 27.682,9.269 L42.682,23.269 C43.086,23.646 43.108,24.278 42.731,24.683 C42.534,24.894 42.267,25 42,25" id="Fill-101" fill="#8697CB"/>
                <polygon id="Fill-600" fill="#24AE5F" points="0 58 12 58 12 50 0 50"/>
                <polygon id="Fill-601" fill="#24AE5F" points="21 58 33 58 33 50 21 50"/>
                <polygon id="Fill-602" fill="#24AE5F" points="42 58 54 58 54 50 42 50"/>
                <polygon id="Fill-603" fill="#4482C3" points="2 34 24 34 24 24 2 24"/>
                <polygon id="Fill-604" fill="#C03A2B" points="16 10 38 10 38 0 16 0"/>
                <polygon id="Fill-605" fill="#4482C3" points="30 34 52 34 52 24 30 24"/>
            </g>
        </g>
    </g>
</svg>
