<svg xmlns="http://www.w3.org/2000/svg" style="isolation:isolate" viewBox="0 0 512 512" width="512pt" height="512pt">
    <defs>
        <clipPath id="a">
            <path d="M0 0h512v512H0z"/>
        </clipPath>
    </defs>
    <g clip-path="url(#a)">
        <path d="M130 34.712h217.119v200.027l-80.098 54.845L88.255 412.03C35.493 406.129 0 394.761 0 381.831V34.712h130Z" fill="#7383BF"/>
        <path d="M347.119 147.525v87.214l-80.098 54.845c-31.009 3.774-62.224 5.6-93.462 5.467C77.668 295.051 0 279.517 0 260.339V147.525c0 19.179 77.668 34.712 173.559 34.712 95.892 0 173.56-15.533 173.56-34.712Z" fill="#556080"/>
        <path d="M242.731 149.53c-4.792.201-8.841-3.521-9.042-8.313-.201-4.793 3.521-8.842 8.313-9.043 22.992-1.674 45.816-5.155 68.261-10.413 4.633-1.154 9.328 1.651 10.507 6.277 1.179 4.626-1.6 9.336-6.22 10.54-23.367 5.502-47.131 9.155-71.072 10.926l-.747.026ZM34.712 147.525c-4.793 0-8.678-3.885-8.678-8.678v-17.355c0-4.793 3.885-8.678 8.678-8.678 4.793 0 8.678 3.885 8.678 8.678v17.355c0 4.793-3.885 8.678-8.678 8.678Z" fill="#556080"/>
        <path d="M34.712 260.339c-4.793 0-8.678-3.885-8.678-8.678v-17.356c0-4.793 3.885-8.678 8.678-8.678 4.793 0 8.678 3.885 8.678 8.678v17.356c0 4.793-3.885 8.678-8.678 8.678Z" fill="#424A60"/>
        <path d="M34.712 373.153c-4.793 0-8.678-3.886-8.678-8.678v-17.356c0-4.793 3.885-8.678 8.678-8.678 4.793 0 8.678 3.885 8.678 8.678v17.356c0 4.792-3.885 8.678-8.678 8.678Z" fill="#556080"/>
        <path d="M337.955 234.305c48.709 0 89.174 39.051 96.325 89.8 39.398 7.02 69.545 44.257 69.545 89.01 0 49.742-37.245 90.25-83.039 90.25H156.403c-38.383-.043-69.623-33.974-69.623-75.671 0-41.698 31.24-75.629 69.623-75.629h1.414c5.65-40.873 38.184-72.322 77.382-72.322 7.054.003 14.071 1.034 20.827 3.063 16.74-29.587 47.937-48.056 81.929-48.501Z" fill="#F0C419"/>
        <ellipse vector-effect="non-scaling-stroke" cx="173.55932203" cy="34.71186441" rx="173.55932203" ry="34.71186441" fill="#7FABDA"/>
    </g>
</svg>