<svg xmlns="http://www.w3.org/2000/svg" viewBox="0 0 512 512" style="enable-background:new 0 0 512 512" xml:space="preserve">
  <path style="fill:#3b97d3" d="M105.931 44.138h300.138v414.897H105.931z"/>
	<path style="fill:#2c3e50" d="M406.069 70.621V17.655C406.04 7.917 398.152.029 388.414 0H123.586c-9.739.029-17.626 7.917-17.655 17.655v52.966h300.138zM406.069 432.552v61.793c-.029 9.739-7.917 17.626-17.655 17.655H123.586c-9.739-.029-17.626-7.917-17.655-17.655v-61.793h300.138z"/>
	<path style="fill:#35495e" d="M264.828 485.517h-17.655c-4.875 0-8.828-3.952-8.828-8.828s3.952-8.828 8.828-8.828h17.655c4.875 0 8.828 3.952 8.828 8.828s-3.953 8.828-8.828 8.828z"/>
	<path style="fill:#2980ba" d="M406.069 105.931s-70.621 256-300.138 264.828v61.793h300.138V105.931z"/>
	<path style="fill:#89c1e5" d="M132.414 150.069c-4.875 0-8.828-3.952-8.828-8.828V97.103c0-4.875 3.952-8.828 8.828-8.828 4.875 0 8.828 3.952 8.828 8.828v44.138c-.001 4.876-3.953 8.828-8.828 8.828z"/>
	<circle style="fill:#89c1e5" cx="132.414" cy="176.552" r="8.828"/>
</svg>