<svg height="512" viewBox="0 0 59 59" width="512" xmlns="http://www.w3.org/2000/svg"><g id="Page-1" fill="none" fill-rule="evenodd"><g id="038---Cloud-Data" fill-rule="nonzero"><path id="Shape" d="m40 4v23.05l-9.23 6.32-20.6 14.11c-6.08-.68-10.17-1.99-10.17-3.48v-40z" fill="#3f5c6c"/><path id="Shape" d="m40 17v10.05l-9.23 6.32c-3.5733008.4349298-7.1703602.6453428-10.77.63-11.05 0-20-1.79-20-4v-13c0 2.21 8.95 4 20 4s20-1.79 20-4z" fill="#35495e"/><path id="Shape" d="m27.971 17.231c-.5522847.023196-1.018804-.4057153-1.042-.958s.4057153-1.018804.958-1.042c2.649439-.1928603 5.2795722-.594101 7.866-1.2.5338367-.1329664 1.0748187.1902488 1.210707.7233492.1358884.5331004-.1843589 1.0758446-.716707 1.2146508-2.6927302.6339441-5.4311907 1.0549113-8.19 1.259z" fill="#35495e"/><circle id="Oval" cx="4" cy="10" fill="#ff5364" r="1"/><path id="Shape" d="m4 17c-.55228475 0-1-.4477153-1-1v-2c0-.5522847.44771525-1 1-1s1 .4477153 1 1v2c0 .5522847-.44771525 1-1 1z" fill="#35495e"/><circle id="Oval" cx="4" cy="23" fill="#ff5364" r="1"/><path id="Shape" d="m4 30c-.55228475 0-1-.4477153-1-1v-2c0-.5522847.44771525-1 1-1s1 .4477153 1 1v2c0 .5522847-.44771525 1-1 1z" fill="#2c3e50"/><circle id="Oval" cx="4" cy="36" fill="#ff5364" r="1"/><path id="Shape" d="m4 43c-.55228475 0-1-.4477153-1-1v-2c0-.5522847.44771525-1 1-1s1 .4477153 1 1v2c0 .5522847-.44771525 1-1 1z" fill="#35495e"/><path id="Shape" d="m38.944 27c5.613 0 10.276 4.5 11.1 10.348 4.54.809 8.014 5.1 8.014 10.257 0 5.732-4.292 10.4-9.569 10.4h-30.466c-4.423-.005-8.023-3.915-8.023-8.72s3.6-8.715 8.023-8.715h.163c.651-4.71 4.4-8.334 8.917-8.334.8129118.0002985 1.6214297.119218 2.4.353 1.9290077-3.4095139 5.5239573-5.5376966 9.441-5.589z" fill="#f0c419"/><ellipse id="Oval" cx="20" cy="4" fill="#547580" rx="20" ry="4"/></g></g></svg>