<?xml version="1.0" encoding="UTF-8" standalone="no"?><!-- Generator: Gravit.io --><svg xmlns="http://www.w3.org/2000/svg" xmlns:xlink="http://www.w3.org/1999/xlink" style="isolation:isolate" viewBox="0 0 400 400" width="400pt" height="400pt"><defs><clipPath id="_clipPath_gUyJxP8ySisUzTOZi7QwuJvqgNctqx9N"><rect width="400" height="400"/></clipPath></defs><g clip-path="url(#_clipPath_gUyJxP8ySisUzTOZi7QwuJvqgNctqx9N)"><path d=" M 48.615 87.772 L 75.595 64.931 L 119.254 53.617 L 177.725 47.77 L 239.909 47.77 L 301.165 60.82 L 346.503 79.902 L 351.385 109.332 L 351.385 313.787 L 328.915 333.055 L 284.394 346.41 L 225.987 352.23 L 169.511 352.23 L 115.606 345.473 L 69.924 330.586 L 48.615 313.787 L 48.615 87.772 Z " fill="rgb(255,255,255)" vector-effect="non-scaling-stroke" stroke-width="1" stroke="rgb(0,0,0)" stroke-linejoin="miter" stroke-linecap="square" stroke-miterlimit="3"/><path d=" M 360.425 93.248 C 360.416 95.624 360.026 97.981 359.256 100.227 C 358.495 102.473 357.427 104.59 356.081 106.548 C 354.708 108.543 353.139 110.4 351.385 112.089 C 349.529 113.88 347.533 115.532 345.427 117.026 C 343.143 118.651 340.758 120.154 338.308 121.509 C 335.626 123.003 332.878 124.368 330.076 125.621 C 327.031 126.985 323.931 128.238 320.794 129.389 C 317.397 130.633 313.963 131.783 310.502 132.832 C 302.817 135.134 295.03 137.083 287.159 138.679 C 278.361 140.471 269.497 141.928 260.587 143.06 C 250.87 144.294 241.116 145.213 231.343 145.817 C 220.901 146.457 210.451 146.782 200 146.772 C 189.549 146.782 179.099 146.457 168.657 145.817 C 158.884 145.213 149.13 144.294 139.413 143.06 C 130.503 141.928 121.639 140.471 112.841 138.679 C 104.97 137.083 97.183 135.134 89.498 132.832 C 86.037 131.783 82.602 130.633 79.206 129.389 C 76.069 128.238 72.969 126.985 69.924 125.621 C 67.122 124.368 64.374 123.003 61.692 121.509 C 59.242 120.154 56.857 118.651 54.573 117.026 C 52.467 115.532 50.471 113.88 48.615 112.089 C 46.861 110.4 45.292 108.543 43.919 106.548 C 42.573 104.59 41.505 102.473 40.744 100.227 C 39.974 97.972 39.584 95.605 39.575 93.22 C 39.584 90.844 39.974 88.477 40.735 86.231 C 41.505 83.976 42.573 81.851 43.919 79.902 C 45.292 77.897 46.861 76.041 48.615 74.361 C 50.471 72.56 52.467 70.918 54.573 69.414 C 56.857 67.79 59.242 66.295 61.692 64.931 C 64.374 63.446 67.122 62.073 69.924 60.82 C 72.969 59.455 76.069 58.202 79.206 57.051 C 82.602 55.808 86.037 54.666 89.498 53.617 C 97.183 51.306 104.97 49.357 112.841 47.77 C 121.639 45.979 130.503 44.513 139.413 43.39 C 149.13 42.146 158.884 41.227 168.657 40.624 C 179.099 39.983 189.549 39.668 200 39.668 C 210.451 39.668 220.901 39.983 231.343 40.624 C 241.116 41.227 250.87 42.146 260.587 43.39 C 269.497 44.513 278.361 45.979 287.159 47.77 C 295.03 49.357 302.817 51.306 310.502 53.617 C 313.963 54.666 317.397 55.808 320.794 57.051 C 323.931 58.202 327.031 59.455 330.076 60.82 C 332.878 62.073 335.626 63.446 338.308 64.931 C 340.758 66.295 343.143 67.79 345.427 69.414 C 347.533 70.918 349.529 72.56 351.385 74.361 C 353.139 76.041 354.708 77.897 356.081 79.902 C 357.427 81.851 358.495 83.976 359.256 86.213 C 360.026 88.459 360.416 90.826 360.425 93.202 C 360.425 93.211 360.425 93.211 360.425 93.22 L 360.425 93.22 L 360.425 93.248 C 360.425 93.239 360.425 93.229 360.425 93.22 M 346.503 93.22 M 346.503 93.22 L 346.503 93.202 C 346.503 93.211 346.503 93.211 346.503 93.22 Z  M 346.503 93.22 C 346.494 94.074 346.355 94.928 346.086 95.735 C 345.724 96.775 345.222 97.759 344.601 98.668 C 343.765 99.893 342.8 101.026 341.733 102.056 C 340.368 103.374 338.911 104.58 337.361 105.675 C 335.496 107.003 333.556 108.228 331.551 109.332 C 329.222 110.632 326.836 111.82 324.405 112.906 C 321.648 114.14 318.845 115.281 316.005 116.321 C 312.868 117.472 309.694 118.53 306.483 119.495 C 299.216 121.686 291.837 123.532 284.394 125.036 C 275.929 126.753 267.4 128.164 258.833 129.25 C 249.413 130.447 239.965 131.338 230.489 131.923 C 220.335 132.544 210.172 132.86 200 132.851 C 189.828 132.86 179.665 132.544 169.511 131.923 C 160.035 131.338 150.587 130.447 141.167 129.25 C 132.6 128.164 124.071 126.753 115.606 125.036 C 108.163 123.532 100.784 121.686 93.517 119.495 C 90.306 118.53 87.132 117.472 83.995 116.321 C 81.155 115.281 78.352 114.14 75.595 112.906 C 73.164 111.82 70.778 110.632 68.449 109.332 C 66.444 108.228 64.504 107.003 62.639 105.675 C 61.089 104.58 59.632 103.374 58.267 102.056 C 57.2 101.026 56.235 99.893 55.399 98.668 C 54.778 97.759 54.276 96.775 53.914 95.735 C 53.645 94.928 53.506 94.074 53.497 93.22 C 53.506 92.366 53.645 91.512 53.924 90.696 C 54.276 89.665 54.778 88.682 55.399 87.772 C 56.235 86.547 57.2 85.415 58.267 84.384 C 59.632 83.076 61.089 81.86 62.639 80.765 C 64.504 79.438 66.444 78.222 68.449 77.108 C 70.778 75.818 73.164 74.621 75.595 73.535 C 78.352 72.3 81.155 71.168 83.995 70.129 C 87.132 68.978 90.306 67.92 93.517 66.945 C 100.784 64.764 108.163 62.917 115.606 61.414 C 124.071 59.687 132.6 58.286 141.167 57.2 C 150.587 55.993 160.035 55.102 169.511 54.527 C 179.665 53.896 189.828 53.59 200 53.59 C 210.172 53.59 220.335 53.896 230.489 54.527 C 239.965 55.102 249.413 55.993 258.833 57.2 C 267.4 58.286 275.929 59.687 284.394 61.414 C 291.837 62.917 299.216 64.764 306.483 66.945 C 309.694 67.92 312.868 68.978 316.005 70.129 C 318.845 71.168 321.648 72.3 324.405 73.535 C 326.836 74.621 329.222 75.818 331.551 77.108 C 333.556 78.222 335.496 79.438 337.361 80.765 C 338.911 81.86 340.368 83.076 341.733 84.384 C 342.8 85.415 343.765 86.547 344.601 87.772 C 345.222 88.682 345.724 89.665 346.086 90.705 C 346.355 91.522 346.494 92.366 346.503 93.22 Z " fill-rule="evenodd" fill="rgb(0,0,0)"/><path d=" M 360.314 162.597 L 360.314 169.558 L 346.392 169.558 L 346.392 162.597 L 346.392 99.355 L 346.392 92.394 L 360.314 92.394 L 360.314 99.355 L 360.314 162.597 Z " fill="rgb(0,0,0)"/><path d=" M 53.803 159.887 L 53.803 166.848 L 39.881 166.848 L 39.881 159.887 L 39.881 96.654 L 39.881 89.693 L 53.803 89.693 L 53.803 96.654 L 53.803 159.887 Z " fill="rgb(0,0,0)"/><path d=" M 53.497 231.008 L 53.497 237.969 L 39.575 237.969 L 39.575 231.008 L 39.575 167.776 L 39.575 160.815 L 53.497 160.815 L 53.497 167.776 L 53.497 231.008 Z " fill="rgb(0,0,0)"/><path d=" M 360.314 233.078 L 360.314 240.039 L 346.392 240.039 L 346.392 233.078 L 346.392 169.845 L 346.392 162.885 L 360.314 162.885 L 360.314 169.845 L 360.314 233.078 Z " fill="rgb(0,0,0)"/><path d=" M 360.425 301.415 L 360.425 308.376 L 346.503 308.376 L 346.503 301.415 L 346.503 238.183 L 346.503 231.222 L 360.425 231.222 L 360.425 238.183 L 360.425 301.415 Z " fill="rgb(0,0,0)"/><path d=" M 53.497 301.267 L 53.497 308.228 L 39.575 308.228 L 39.575 301.267 L 39.575 238.025 L 39.575 231.064 L 53.497 231.064 L 53.497 238.025 L 53.497 301.267 Z " fill="rgb(0,0,0)"/><ellipse vector-effect="non-scaling-stroke" cx="80.27598932923947" cy="157.7529991923209" rx="9.94239000420103" ry="9.941619416355621" fill="rgb(0,0,0)"/><ellipse vector-effect="non-scaling-stroke" cx="80.27598932923947" cy="229.11904186774237" rx="9.94239000420103" ry="9.941619416355621" fill="rgb(0,0,0)"/><ellipse vector-effect="non-scaling-stroke" cx="80.27598932923947" cy="299.3721282340242" rx="9.94239000420103" ry="9.94161941635565" fill="rgb(0,0,0)"/><path d=" M 53.729 141.472 C 51.932 142.802 50.221 144.248 48.615 145.798 C 46.861 147.487 45.292 149.343 43.919 151.339 C 42.573 153.297 41.505 155.423 40.735 157.669 C 39.974 159.924 39.584 162.291 39.575 164.667 C 39.584 167.052 39.974 169.419 40.744 171.674 C 41.505 173.911 42.573 176.036 43.919 177.985 C 45.292 179.99 46.861 181.846 48.615 183.526 C 50.471 185.326 52.467 186.979 54.573 188.473 C 56.857 190.097 59.242 191.591 61.692 192.956 C 64.374 194.441 67.122 195.814 69.924 197.067 C 72.969 198.431 76.069 199.684 79.206 200.835 C 82.602 202.079 86.037 203.221 89.498 204.269 C 97.183 206.58 104.97 208.529 112.841 210.116 C 121.639 211.908 130.503 213.374 139.413 214.497 C 149.13 215.741 158.884 216.66 168.657 217.263 C 179.099 217.903 189.549 218.228 200 218.219 L 200 218.219 C 210.451 218.228 220.901 217.903 231.343 217.263 C 241.116 216.66 250.87 215.741 260.587 214.497 C 269.497 213.374 278.361 211.908 287.159 210.116 C 295.03 208.529 302.817 206.58 310.502 204.269 C 313.963 203.221 317.397 202.079 320.794 200.835 C 323.931 199.684 327.031 198.431 330.076 197.067 C 332.878 195.814 335.626 194.441 338.308 192.956 C 340.758 191.591 343.143 190.097 345.427 188.473 C 347.533 186.979 349.529 185.326 351.385 183.526 C 353.139 181.846 354.708 179.99 356.081 177.985 C 357.427 176.036 358.495 173.911 359.256 171.674 C 360.026 169.419 360.416 167.052 360.425 164.667 C 360.416 162.281 360.026 159.915 359.256 157.659 C 358.495 155.423 357.427 153.297 356.081 151.339 C 354.708 149.343 353.139 147.487 351.385 145.798 C 349.848 144.315 348.215 142.927 346.503 141.645 L 346.503 164.184 L 346.484 164.184 C 346.495 164.345 346.501 164.506 346.503 164.667 C 346.494 165.52 346.355 166.365 346.086 167.182 C 345.724 168.221 345.222 169.205 344.601 170.115 C 343.765 171.34 342.8 172.472 341.733 173.502 C 340.368 174.811 338.911 176.027 337.361 177.122 C 335.496 178.449 333.556 179.674 331.551 180.779 C 329.222 182.078 326.836 183.266 324.405 184.352 C 321.648 185.586 318.845 186.719 316.005 187.758 C 312.868 188.909 309.694 189.976 306.483 190.942 C 299.216 193.123 291.837 194.97 284.394 196.473 C 275.929 198.199 267.4 199.601 258.833 200.687 C 249.413 201.893 239.965 202.784 230.489 203.369 C 220.335 203.991 210.172 204.306 200 204.297 L 200 204.297 C 189.828 204.306 179.665 203.991 169.511 203.369 C 160.035 202.784 150.587 201.893 141.167 200.687 C 132.6 199.601 124.071 198.199 115.606 196.473 C 108.163 194.97 100.784 193.123 93.517 190.942 C 90.306 189.976 87.132 188.909 83.995 187.758 C 81.155 186.719 78.352 185.586 75.595 184.352 C 73.164 183.266 70.778 182.078 68.449 180.779 C 66.444 179.674 64.504 178.449 62.639 177.122 C 61.089 176.027 59.632 174.811 58.267 173.502 C 57.2 172.472 56.235 171.34 55.399 170.115 C 54.778 169.205 54.276 168.221 53.914 167.182 C 53.645 166.365 53.506 165.52 53.497 164.667 C 53.504 164.036 53.58 163.41 53.729 162.804 L 53.729 162.804 L 53.729 141.472 Z  M 200 204.297 C 200 204.297 200 204.297 200 204.297 L 200 204.297 L 200 204.297 L 200 204.297 L 200 204.297 Z " fill-rule="evenodd" fill="rgb(0,0,0)"/><path d=" M 200 289.582 C 200 289.591 200 289.591 200 289.591 L 200 289.591 L 200 289.582 L 200 289.582 L 200 289.582 L 200 289.582 Z  M 53.358 213.122 C 51.696 214.374 50.11 215.727 48.615 217.17 C 46.861 218.85 45.292 220.706 43.919 222.711 C 42.573 224.66 41.505 226.785 40.735 229.041 C 39.974 231.287 39.584 233.654 39.575 236.03 C 39.584 238.415 39.974 240.781 40.744 243.037 C 41.505 245.283 42.573 247.399 43.919 249.357 C 45.292 251.353 46.861 253.209 48.615 254.898 C 50.471 256.689 52.467 258.341 54.573 259.836 C 56.857 261.46 59.242 262.963 61.692 264.318 C 64.374 265.813 67.122 267.177 69.924 268.43 C 72.969 269.794 76.069 271.047 79.206 272.198 C 82.602 273.442 86.037 274.593 89.498 275.642 C 97.183 277.943 104.97 279.892 112.841 281.489 C 121.639 283.28 130.503 284.737 139.413 285.869 C 149.13 287.104 158.884 288.023 168.657 288.626 C 179.099 289.266 189.549 289.591 200 289.591 C 200 289.591 200 289.591 200 289.582 L 200 289.582 L 200 289.591 C 210.451 289.591 220.901 289.266 231.343 288.626 C 241.116 288.023 250.87 287.104 260.587 285.869 C 269.497 284.737 278.361 283.28 287.159 281.489 C 295.03 279.892 302.817 277.943 310.502 275.642 C 313.963 274.593 317.397 273.442 320.794 272.198 C 323.931 271.047 327.031 269.794 330.076 268.43 C 332.878 267.177 335.626 265.813 338.308 264.318 C 340.758 262.963 343.143 261.46 345.427 259.836 C 347.533 258.341 349.529 256.689 351.385 254.898 C 353.139 253.209 354.708 251.353 356.081 249.357 C 357.427 247.399 358.495 245.283 359.256 243.037 C 360.026 240.781 360.416 238.415 360.425 236.03 C 360.416 233.644 360.026 231.278 359.256 229.022 C 358.495 226.785 357.427 224.66 356.081 222.711 C 354.708 220.706 353.139 218.85 351.385 217.17 C 349.82 215.66 348.156 214.249 346.41 212.948 L 346.41 234.875 C 346.468 235.257 346.499 235.642 346.503 236.03 C 346.494 236.883 346.355 237.737 346.086 238.545 C 345.724 239.584 345.222 240.577 344.601 241.478 C 343.765 242.703 342.8 243.835 341.733 244.865 C 340.368 246.183 338.911 247.39 337.361 248.485 C 335.496 249.812 333.556 251.037 331.551 252.142 C 329.222 253.441 326.836 254.629 324.405 255.724 C 321.648 256.949 318.845 258.091 316.005 259.13 C 312.868 260.281 309.694 261.339 306.483 262.304 C 299.216 264.495 291.837 266.342 284.394 267.845 C 275.929 269.562 267.4 270.973 258.833 272.059 C 249.413 273.256 239.965 274.147 230.489 274.732 C 220.335 275.354 210.172 275.669 200 275.669 L 200 275.669 C 200 275.669 200 275.669 200 275.669 L 200 275.669 L 200 275.669 C 189.828 275.669 179.665 275.354 169.511 274.732 C 160.035 274.147 150.587 273.256 141.167 272.059 C 132.6 270.973 124.071 269.562 115.606 267.845 C 108.163 266.342 100.784 264.495 93.517 262.304 C 90.306 261.339 87.132 260.281 83.995 259.13 C 81.155 258.091 78.352 256.949 75.595 255.724 C 73.164 254.629 70.778 253.441 68.449 252.142 C 66.444 251.037 64.504 249.812 62.639 248.485 C 61.089 247.39 59.632 246.183 58.267 244.865 C 57.2 243.835 56.235 242.703 55.399 241.478 C 54.778 240.577 54.276 239.584 53.914 238.545 C 53.663 237.79 53.525 236.995 53.5 236.197 L 53.358 236.197 L 53.358 213.122 L 53.358 213.122 Z " fill-rule="evenodd" fill="rgb(0,0,0)"/><path d=" M 346.503 283.758 C 348.215 285.04 349.848 286.428 351.385 287.911 C 353.139 289.6 354.708 291.457 356.081 293.452 C 357.427 295.41 358.495 297.527 359.256 299.773 C 360.026 302.028 360.416 304.395 360.425 306.78 C 360.416 309.165 360.026 311.532 359.256 313.787 C 358.495 316.024 357.427 318.149 356.081 320.098 C 354.708 322.103 353.139 323.959 351.385 325.639 C 349.529 327.44 347.533 329.082 345.427 330.586 C 343.143 332.21 340.758 333.705 338.308 335.069 C 335.626 336.554 332.878 337.927 330.076 339.18 C 327.031 340.545 323.931 341.798 320.794 342.949 C 317.397 344.192 313.963 345.334 310.502 346.383 C 302.817 348.694 295.03 350.643 287.159 352.23 C 278.361 354.021 269.497 355.487 260.587 356.61 C 250.87 357.854 241.116 358.773 231.343 359.376 C 220.901 360.017 210.451 360.332 200 360.332 C 189.549 360.332 179.099 360.017 168.657 359.376 C 158.884 358.773 149.13 357.854 139.413 356.61 C 130.503 355.487 121.639 354.021 112.841 352.23 C 104.97 350.643 97.183 348.694 89.498 346.383 C 86.037 345.334 82.602 344.192 79.206 342.949 C 76.069 341.798 72.969 340.545 69.924 339.18 C 67.122 337.927 64.374 336.554 61.692 335.069 C 59.242 333.705 56.857 332.21 54.573 330.586 C 52.467 329.082 50.471 327.44 48.615 325.639 C 46.861 323.959 45.292 322.103 43.919 320.098 C 42.573 318.149 41.505 316.024 40.744 313.787 C 39.974 311.532 39.584 309.165 39.575 306.78 L 39.575 306.78 C 39.584 304.395 39.974 302.037 40.735 299.782 C 41.505 297.527 42.573 295.41 43.919 293.452 C 45.292 291.457 46.861 289.6 48.615 287.911 C 50.138 286.441 51.755 285.065 53.45 283.793 L 53.45 306.733 L 53.497 306.733 C 53.497 306.749 53.497 306.764 53.497 306.78 L 53.497 306.78 C 53.506 307.634 53.645 308.478 53.914 309.295 C 54.276 310.335 54.778 311.318 55.399 312.228 C 56.235 313.453 57.2 314.585 58.267 315.616 C 59.632 316.924 61.089 318.14 62.639 319.235 C 64.504 320.562 66.444 321.778 68.449 322.892 C 70.778 324.182 73.164 325.379 75.595 326.465 C 78.352 327.7 81.155 328.832 83.995 329.871 C 87.132 331.022 90.306 332.08 93.517 333.055 C 100.784 335.236 108.163 337.083 115.606 338.586 C 124.071 340.313 132.6 341.714 141.167 342.8 C 150.587 344.007 160.035 344.898 169.511 345.473 C 179.665 346.104 189.828 346.41 200 346.41 C 210.172 346.41 220.335 346.104 230.489 345.473 C 239.965 344.898 249.413 344.007 258.833 342.8 C 267.4 341.714 275.929 340.313 284.394 338.586 C 291.837 337.083 299.216 335.236 306.483 333.055 C 309.694 332.08 312.868 331.022 316.005 329.871 C 318.845 328.832 321.648 327.7 324.405 326.465 C 326.836 325.379 329.222 324.182 331.551 322.892 C 333.556 321.778 335.496 320.562 337.361 319.235 C 338.911 318.14 340.368 316.924 341.733 315.616 C 342.8 314.585 343.765 313.453 344.601 312.228 C 345.222 311.318 345.724 310.335 346.086 309.295 C 346.355 308.478 346.494 307.634 346.503 306.78 C 346.503 306.78 346.503 306.779 346.503 306.779 L 346.503 283.758 Z " fill-rule="evenodd" fill="rgb(0,0,0)"/></g></svg>