<svg height="512" viewBox="0 0 58 53" width="512" xmlns="http://www.w3.org/2000/svg"><g id="Page-1" fill="none" fill-rule="evenodd"><g id="002---API" fill-rule="nonzero"><path id="Shape" d="m42.07 33c-2.0690699 5.4199209-7.2685697 9.000491-13.07 9.000491s-11.0009301-3.5805701-13.07-9.000491l-2.93-3-4.08 2.6-3.52 1.45c-.42847818.1845162-.62902515.6791987-.45 1.11l2.59 6.28c.18116012.4318726.67645962.6371319 1.11.46l4.36-1.8c1.3003769 1.8554049 2.9145951 3.4696231 4.77 4.77l-1.8 4.35c-.0897403.2078404-.0914729.4431664-.0048026.6523056s.2543527.3742572.4648026.4576944l6.27 2.6c.2091916.0907277.4461754.0930399.6570975.0064112.210922-.0866287.3778689-.254841.4629025-.4664112l1.8-4.35c2.2294594.3966545 4.5117275.3932683 6.74-.01l1.81 4.36c.0845142.2095745.2497301.3763762.4584877.4628883.2087577.0865122.4435299.0854714.6515123-.0028883l6.27-2.6c.2104499-.0834372.3781323-.2485552.4648026-.4576944s.0849377-.4444652-.0048026-.6523056l-1.8-4.36c1.8573455-1.2940551 3.4720498-2.9053744 4.77-4.76l4.35 1.8c.2091916.0907277.4461754.0930399.6570975.0064112.210922-.0866287.3778689-.254841.4629025-.4664112l2.6-6.27c.0884256-.2094309.0895828-.4454969.0032146-.6557846-.0863681-.2102877-.2531138-.3773936-.4632146-.4642154l-2.57-1.07h-.01l-4.02-2.98z" fill="#3f5c6c"/><path id="Shape" d="m58 24.5c-.003144 4.6931175-3.8068825 8.496856-8.5 8.5h-37.5c-6.627417 0-12-5.372583-12-12s5.372583-12 12-12c.31 0 .61.01.91.04 2.0587349-5.43556323 7.26228-9.03338786 13.0746541-9.04005087 5.8123741-.00666302 11.0241543 3.57922198 13.0953459 9.01005087.14-.01.28-.01.42-.01 4.4500116-.00054376 8.4169737 2.8043789 9.9 7h.1c4.6931175.003144 8.496856 3.8068825 8.5 8.5z" fill="#b0d3f0"/><path id="Shape" d="m5.7705 27c-.30185083.0005429-.58768565-.135737-.7773-.3706-1.73245124-2.1445708-2.38301828-4.9664435-1.76436752-7.6530478.61865076-2.6866042 2.43785594-4.9397566 4.93376752-6.1106522.4994311-.2359637 1.09558634-.0223811 1.33155.47705s.0223811 1.0955863-.47705 1.33155c-2.44487847 1.1597053-4.00710635 3.6197349-4.0171 6.3257-.00614342 1.5920592.54061699 3.1368721 1.5469 4.3706.24255369.2994659.29144355.7116607.12567268 1.0595575-.16577086.3478967-.51670004.5695799-.90207268.5698425z" fill="#ecf0f1"/><g fill="#3b97d3"><path id="Shape" d="m16 28.0005c-.3214095-.0004569-.6230586-.1551919-.8109292-.415977-.1878707-.2607851-.2391186-.5959101-.1377708-.900923l4-12c.1747429-.5239525.7411475-.8070429 1.2651-.6323s.8070429.7411475.6323 1.2651l-4 12c-.1360024.4084775-.5181765.6840602-.9487.6841z"/><path id="Shape" d="m24 28.0005c-.4305235-.0000398-.8126976-.2756225-.9487-.6841l-4-12c-.1747429-.5239525.1083475-1.0903571.6323-1.2651s1.0903571.1083475 1.2651.6323l4 12c.1013478.3050129.0500999.6401379-.1377708.900923-.1878706.2607851-.4895197.4155201-.8109292.415977z"/><path id="Shape" d="m22.33 23h-4.66c-.5522847 0-1-.4477153-1-1s.4477153-1 1-1h4.66c.5522847 0 1 .4477153 1 1s-.4477153 1-1 1z"/><path id="Shape" d="m27 28c-.5522847 0-1-.4477153-1-1v-12c0-.5522847.4477153-1 1-1s1 .4477153 1 1v12c0 .5522847-.4477153 1-1 1z"/><path id="Shape" d="m31 22h-4c-.5522847 0-1-.4477153-1-1v-6c0-.5522847.4477153-1 1-1h4c2.209139 0 4 1.790861 4 4s-1.790861 4-4 4zm-3-2h3c1.1045695 0 2-.8954305 2-2s-.8954305-2-2-2h-3z"/><path id="Shape" d="m39 28c-.5522847 0-1-.4477153-1-1v-12c0-.5522847.4477153-1 1-1s1 .4477153 1 1v12c0 .5522847-.4477153 1-1 1z"/><path id="Shape" d="m42 16h-6c-.5522847 0-1-.4477153-1-1s.4477153-1 1-1h6c.5522847 0 1 .4477153 1 1s-.4477153 1-1 1z"/><path id="Shape" d="m42 28h-6c-.5522847 0-1-.4477153-1-1s.4477153-1 1-1h6c.5522847 0 1 .4477153 1 1s-.4477153 1-1 1z"/></g><path id="Shape" d="m18 11.0005c-.3214095-.0004569-.6230586-.1551919-.8109292-.415977-.1878707-.2607851-.2391186-.59591009-.1377708-.900923 2.2026-6.6074 7.7153-6.6836 7.9487-6.6836.5522847-.00135308 1.0010969.44526526 1.00245.99755s-.4452653 1.00109689-.99755 1.00245c-.1939.0029-4.3267.1274-6.0562 5.3164-.1360024.4084775-.5181765.6840602-.9487.6841z" fill="#ecf0f1"/></g></g></svg>