<svg height="512" viewBox="0 0 50 58" width="512" xmlns="http://www.w3.org/2000/svg"><g id="Page-1" fill="none" fill-rule="evenodd"><g id="007---Presentation" fill-rule="nonzero"><path id="Shape" d="m38 53h-26c-.5522847 0-1-.4477153-1-1s.4477153-1 1-1h26c.5522847 0 1 .4477153 1 1s-.4477153 1-1 1z" fill="#603e26"/><path id="Shape" d="m19 44-6.72 13.45c-.1710655.3395038-.5198431.5526457-.9.55h-3.76c-.3483719.002433-.67290102-.1766148-.8566239-.4726128-.18372288-.2959979-.20015578-.6662778-.0433761-.9773872l6.28-12.55 3-2z" fill="#a56a43"/><path id="Shape" d="m42.38 58h-3.76c-.3801569.0026457-.7289345-.2104962-.9-.55l-6.72-13.45 3-2 3 2 6.28 12.55c.1567797.3111094.1403468.6813893-.0433761.9773872-.1837229.295998-.508252.4750458-.8566239.4726128z" fill="#a56a43"/><path id="Shape" d="m30 4h13c2.209139 0 4 1.790861 4 4v32h-44v-32c0-2.209139 1.790861-4 4-4z" fill="#ecf0f1"/><rect id="Rectangle-path" fill="#f29c1f" height="8" rx="3" width="10" x="20"/><path id="Shape" d="m50 41c0 1.6568542-1.3431458 3-3 3h-44c-1.65685425 0-3-1.3431458-3-3s1.34314575-3 3-3h44c1.6568542 0 3 1.3431458 3 3z" fill="#f29c1f"/><path id="Shape" d="m12 32h8c1.1045695 0 2 .8954305 2 2v4h-12v-4c0-1.1045695.8954305-2 2-2z" fill="#bdc3c7"/><path id="Shape" d="m30 29c-.5522847 0-1-.4477153-1-1v-5c0-.5522847.4477153-1 1-1s1 .4477153 1 1v5c0 .5522847-.4477153 1-1 1z" fill="#3b97d3"/><path id="Shape" d="m34 29c-.5522847 0-1-.4477153-1-1v-9c0-.5522847.4477153-1 1-1s1 .4477153 1 1v9c0 .5522847-.4477153 1-1 1z" fill="#955ba5"/><path id="Shape" d="m38 29c-.5522847 0-1-.4477153-1-1v-13c0-.5522847.4477153-1 1-1s1 .4477153 1 1v13c0 .5522847-.4477153 1-1 1z" fill="#ff5364"/><path id="Shape" d="m42 29c-.5522847 0-1-.4477153-1-1v-10c0-.5522847.4477153-1 1-1s1 .4477153 1 1v10c0 .5522847-.4477153 1-1 1z" fill="#26b99a"/><path id="Shape" d="m24 19c0 4.418278-3.581722 8-8 8s-8-3.581722-8-8 3.581722-8 8-8v8z" fill="#ff5364"/><path id="Shape" d="m24 19h-8v-8c4.418278 0 8 3.581722 8 8z" fill="#955ba5"/></g></g></svg>