<?xml version="1.0" encoding="UTF-8" standalone="no"?><!-- Generator: Gravit.io --><svg xmlns="http://www.w3.org/2000/svg" xmlns:xlink="http://www.w3.org/1999/xlink" style="isolation:isolate" viewBox="0 0 400 400" width="400pt" height="400pt"><defs><clipPath id="_clipPath_U4uDDqFexrtDtBQfGJUYhwcAnueZyH5b"><rect width="400" height="400"/></clipPath></defs><g clip-path="url(#_clipPath_U4uDDqFexrtDtBQfGJUYhwcAnueZyH5b)"><g><path d=" M 176 81 L 227 81 L 253 49 L 253 33 L 148 33 L 148 49 L 176 81 Z " fill="rgb(255,255,255)"/><path d=" M 177.403 80.014 L 175.412 91.55 L 235.056 128.433 L 222.585 82.889 L 177.403 80.014 Z " fill="rgb(255,255,255)"/><path d=" M 158.522 154.812 L 142.846 218.437 L 279.294 302.396 L 256.264 211.775 L 158.522 154.812 Z " fill="rgb(255,255,255)"/><path d=" M 128.335 279.187 L 120.693 306.959 L 125.139 326.323 L 162.023 354.908 L 199.994 370.583 L 241.511 350.297 L 128.335 279.187 Z " fill="rgb(255,255,255)"/><path d=" M 174.198 91.55 L 235.056 128.433 L 261.609 214.749 L 158.522 154.812 L 174.198 91.55 Z " fill="rgb(255,255,255)"/><path d=" M 142.846 218.437 L 279.294 302.396 L 277.304 319.868 L 256.264 341.998 L 241.511 350.297 L 128.093 275.969 L 142.846 218.437 Z " fill="rgb(255,255,255)"/><path d=" M 246.57 39.3 C 236.03 38.43 225.48 37.78 214.92 37.34 C 206.17 36.97 197.41 36.84 188.65 36.95 C 181.71 37.03 174.76 37.3 167.84 37.76 C 162.9 38.09 157.98 38.56 153.08 39.18 C 153.1 39.23 153.11 39.29 153.13 39.34 C 153.21 39.56 153.29 39.78 153.38 40 C 153.67 40.71 154.01 41.4 154.38 42.07 C 154.98 43.18 155.64 44.26 156.34 45.31 C 156.94 46.22 157.56 47.1 158.2 47.97 C 159.04 49.11 159.9 50.22 160.79 51.32 C 161.44 52.13 162.1 52.93 162.77 53.72 C 163.56 54.64 164.35 55.56 165.15 56.46 C 167.47 59.08 169.86 61.64 172.31 64.14 C 175.04 66.94 177.82 69.7 180.64 72.41 L 219.67 72.41 C 221.75 70.31 223.8 68.18 225.83 66.03 C 227.94 63.8 230.01 61.54 232.05 59.24 C 234.86 56.07 237.57 52.82 240.17 49.47 C 241.66 47.56 243.04 45.57 244.32 43.51 C 244.81 42.71 245.28 41.9 245.73 41.07 C 246.02 40.52 246.29 39.96 246.53 39.39 C 246.55 39.36 246.56 39.33 246.57 39.3 Z  M 228.12 85.21 C 231.03 82.29 233.89 79.33 236.72 76.34 C 238.94 74 241.13 71.61 243.27 69.2 C 246.3 65.79 249.21 62.28 252.01 58.68 C 253.82 56.35 255.51 53.93 257.07 51.42 C 257.73 50.35 258.36 49.25 258.96 48.14 C 259.45 47.21 259.9 46.27 260.32 45.31 C 260.92 43.91 261.4 42.46 261.76 40.98 C 262.09 39.66 262.24 38.3 262.22 36.95 C 262.2 36.07 262.1 35.2 261.92 34.34 C 261.73 33.45 261.44 32.59 261.06 31.78 C 260.69 30.97 260.22 30.21 259.67 29.52 C 259.13 28.83 258.51 28.2 257.83 27.64 C 256.69 26.71 255.39 25.99 254 25.5 C 252.57 24.99 251.08 24.66 249.57 24.5 C 238.24 23.54 226.9 22.83 215.54 22.35 C 206.52 21.98 197.49 21.84 188.47 21.95 C 181.26 22.04 174.05 22.32 166.85 22.79 C 160.88 23.19 154.92 23.79 148.99 24.59 C 147.2 25.02 145.49 25.72 143.91 26.68 C 142.49 27.55 141.25 28.69 140.26 30.03 C 139.78 30.68 139.37 31.37 139.03 32.1 C 138.69 32.82 138.42 33.57 138.22 34.34 C 138.01 35.15 137.88 35.97 137.82 36.8 C 137.76 37.63 137.77 38.45 137.84 39.28 C 137.9 39.9 137.99 40.51 138.11 41.13 C 138.23 41.76 138.38 42.39 138.56 43.02 C 138.69 43.46 138.83 43.89 138.98 44.32 C 139.15 44.78 139.32 45.23 139.5 45.68 C 140.01 46.92 140.59 48.14 141.24 49.31 C 142.04 50.78 142.91 52.21 143.84 53.61 C 144.58 54.72 145.35 55.82 146.15 56.9 C 147.11 58.2 148.1 59.48 149.11 60.74 C 149.84 61.64 150.58 62.54 151.34 63.42 C 152.19 64.43 153.05 65.43 153.93 66.41 C 156.41 69.22 158.97 71.96 161.59 74.64 C 165.15 78.27 168.77 81.84 172.45 85.35 C 173.85 86.67 175.7 87.41 177.62 87.41 L 222.81 87.41 C 224.8 87.41 226.71 86.62 228.12 85.21 Z " fill-rule="evenodd" fill="rgb(57,28,28)"/><path d=" M 229.85 78.16 C 243.74 132.51 257.61 186.86 271.47 241.21 L 286.62 300.77 C 287.04 302.94 287.24 305.15 287.23 307.36 C 287.22 309.48 287.01 311.59 286.6 313.67 C 286.16 315.87 285.52 318.01 284.69 320.09 C 283.78 322.34 282.69 324.52 281.42 326.6 C 280.9 327.46 280.35 328.3 279.77 329.12 C 279.17 330 278.54 330.85 277.88 331.69 C 277.4 332.31 276.9 332.92 276.39 333.52 C 275.86 334.15 275.31 334.77 274.75 335.38 C 272.98 337.34 271.1 339.19 269.13 340.95 C 266.79 343.04 264.36 345.02 261.85 346.9 C 260.05 348.26 258.21 349.56 256.34 350.82 C 254.22 352.25 252.07 353.62 249.89 354.96 C 248.32 355.91 246.73 356.85 245.14 357.76 C 243.4 358.75 241.64 359.72 239.87 360.67 C 234.59 363.51 229.22 366.17 223.76 368.65 C 215.94 372.2 208.02 375.53 200.01 378.63 C 192.87 375.9 185.81 372.98 178.82 369.89 C 173.87 367.71 168.99 365.38 164.16 362.93 C 159.22 360.41 154.36 357.72 149.61 354.86 C 145.87 352.62 142.24 350.2 138.72 347.62 C 134.47 344.5 130.46 341.06 126.72 337.34 C 123.89 334.52 121.37 331.41 119.19 328.05 C 117.81 325.92 116.61 323.68 115.61 321.35 C 114.7 319.23 113.99 317.02 113.51 314.76 C 113.05 312.63 112.8 310.46 112.77 308.29 C 112.74 306.02 112.94 303.76 113.37 301.54 L 126.73 249.27 C 141.23 192.25 155.69 135.21 170.13 78.17 C 170.54 76.56 171.48 75.12 172.8 74.1 C 174.11 73.07 175.73 72.51 177.4 72.51 L 222.59 72.51 C 224.25 72.51 225.87 73.07 227.19 74.09 C 228.5 75.11 229.44 76.54 229.85 78.16 Z  M 216.76 87.51 L 256.93 244.92 L 271.96 303.98 C 272.15 305.07 272.24 306.17 272.23 307.27 C 272.22 308.44 272.11 309.61 271.88 310.77 C 271.63 312.04 271.26 313.28 270.78 314.48 C 270.17 315.98 269.45 317.42 268.61 318.8 C 268.24 319.4 267.86 319.98 267.46 320.56 C 267.01 321.2 266.55 321.83 266.06 322.45 C 265.7 322.92 265.33 323.38 264.94 323.83 C 264.53 324.32 264.1 324.8 263.67 325.28 C 262.24 326.85 260.73 328.34 259.15 329.75 C 257.12 331.56 255.02 333.28 252.85 334.9 C 251.25 336.1 249.63 337.26 247.97 338.37 C 246.04 339.67 244.07 340.93 242.08 342.15 C 240.63 343.03 239.17 343.89 237.7 344.73 C 236.07 345.66 234.43 346.57 232.78 347.46 C 227.79 350.13 222.71 352.65 217.55 354.99 C 211.75 357.63 205.89 360.14 199.98 362.52 C 194.91 360.5 189.88 358.38 184.88 356.17 C 180.19 354.1 175.55 351.89 170.97 349.56 C 166.34 347.21 161.79 344.69 157.34 342.01 C 153.99 340 150.74 337.83 147.6 335.52 C 143.95 332.85 140.51 329.9 137.31 326.71 C 135.23 324.64 133.38 322.36 131.78 319.9 C 130.86 318.47 130.06 316.97 129.39 315.41 C 128.86 314.19 128.45 312.92 128.17 311.61 C 127.92 310.45 127.79 309.26 127.77 308.07 C 127.75 306.96 127.84 305.86 128.03 304.77 L 141.27 252.97 L 183.24 87.51 L 216.76 87.51 Z " fill-rule="evenodd" fill="rgb(57,28,28)"/><path d=" M 238.94 122.02 L 231.17 134.85 L 170.31 97.96 L 178.08 85.14 L 238.94 122.02 Z " fill="rgb(57,28,28)"/><path d=" M 260.18 208.36 L 252.34 221.14 L 154.6 161.21 L 162.44 148.42 L 260.18 208.36 Z " fill="rgb(57,28,28)"/><path d=" M 282.32 296.02 L 274.42 308.77 L 138.9 224.81 L 146.8 212.06 L 282.32 296.02 Z " fill="rgb(57,28,28)"/><path d=" M 245.62 344.02 L 237.4 356.57 L 123.98 282.24 L 132.2 269.7 L 245.62 344.02 Z " fill="rgb(57,28,28)"/></g></g></svg>