<?xml version="1.0" encoding="UTF-8" standalone="no"?><!-- Generator: Gravit.io --><svg xmlns="http://www.w3.org/2000/svg" xmlns:xlink="http://www.w3.org/1999/xlink" style="isolation:isolate" viewBox="0 0 400 400" width="400pt" height="400pt"><defs><clipPath id="_clipPath_aeiwHEkKVSNS1tvieez03yAwfchzPKCn"><rect width="400" height="400"/></clipPath></defs><g clip-path="url(#_clipPath_aeiwHEkKVSNS1tvieez03yAwfchzPKCn)"><g><path d=" M 270.655 375 L 129.345 375 C 112.65 375 97.25 351.445 97.25 322.5 L 97.25 77.5 C 97.25 48.555 112.65 25 129.345 25 L 270.655 25 C 287.35 25 302.75 48.555 302.75 77.5 L 302.75 322.5 C 302.75 351.445 287.35 375 270.655 375 Z  M 135.623 77.5 L 135.623 322.5 L 264.377 322.5 L 264.377 77.5 L 135.623 77.5 Z " fill="rgb(0,0,0)"/><path d="M 131.591 75.5 L 268.409 75.5 C 273.855 75.5 278.276 79.922 278.276 85.368 L 278.276 313.32 C 278.276 318.766 273.855 323.188 268.409 323.188 L 131.591 323.188 C 126.145 323.188 121.724 318.766 121.724 313.32 L 121.724 85.368 C 121.724 79.922 126.145 75.5 131.591 75.5 Z" style="stroke:none;fill:#FFFFFF;stroke-miterlimit:10;"/><circle vector-effect="non-scaling-stroke" cx="200" cy="348.125" r="15.125" fill="rgb(235,235,235)"/><path d=" M 218.5 50.5 C 219.16 50.5 219.8 50.76 220.27 51.23 C 220.74 51.7 221 52.34 221 53 C 221 53.66 220.74 54.3 220.27 54.77 C 219.8 55.24 219.16 55.5 218.5 55.5 L 181.5 55.5 C 180.84 55.5 180.2 55.24 179.73 54.77 C 179.26 54.3 179 53.66 179 53 C 179 52.34 179.26 51.7 179.73 51.23 C 180.2 50.76 180.84 50.5 181.5 50.5 L 218.5 50.5 Z " fill="rgb(255,255,255)"/></g></g></svg>