<?xml version="1.0" encoding="UTF-8" standalone="no"?><!-- Generator: Gravit.io --><svg xmlns="http://www.w3.org/2000/svg" xmlns:xlink="http://www.w3.org/1999/xlink" style="isolation:isolate" viewBox="0 0 400 400" width="400pt" height="400pt"><defs><clipPath id="_clipPath_0JimgEMp3Qny0toRZkKNL7NnAcTqb8cx"><rect width="400" height="400"/></clipPath></defs><g clip-path="url(#_clipPath_0JimgEMp3Qny0toRZkKNL7NnAcTqb8cx)"><defs><filter id="KVyHtw3JAWyCrAVLoC4w95Yf7HKLDvmK" x="-200%" y="-200%" width="400%" height="400%" filterUnits="objectBoundingBox" color-interpolation-filters="sRGB"><feGaussianBlur xmlns="http://www.w3.org/2000/svg" stdDeviation="0"/></filter></defs><g filter="url(#KVyHtw3JAWyCrAVLoC4w95Yf7HKLDvmK)"><path d=" M 358.349 251.194 Q 342.97 296.142 317.264 319.886 Q 290.73 305.114 277.19 297.588 Q 258.691 313.254 237.514 319.127 Q 238.206 343.468 238.663 364.468 Q 201.238 375.149 160.444 365.23 Q 159.5 337.737 158.869 319.127 Q 137.835 310.814 119.619 295.321 L 82.024 319.886 Q 53.681 291.483 41.651 251.333 L 79.757 228.661 Q 74.99 205.994 78.623 183.117 Q 61.317 172.798 41.651 161.16 Q 49.729 124.765 80.89 91.278 Q 95.561 99.397 118.485 111.678 Q 135.427 96.512 157.028 87.872 Q 158.114 68.05 158.869 45.613 C 192.374 38.406 214.196 39.115 240.032 44.85 Q 239.97 52.872 240.032 87.872 Q 263.314 96.676 280.019 110.544 Q 293.847 102.908 317.499 90.194 Q 348.402 121.569 357.967 161.276 C 345.773 168.389 342.089 170.373 320.267 183.117 Q 323.821 205.852 320.267 228.522 Q 339.443 239.649 358.349 251.194 Z  M 197.789 264.166 C 230.316 263.836 255.638 238.235 258.018 206.395 C 258.33 175.604 234.946 144.68 198.922 143.924 C 169.197 144.68 139.049 170.014 140.57 206.272 C 142.371 239.085 171.912 263.899 197.789 264.166 Z " fill="rgb(255,255,255)"/></g><path d=" M 133.32 202.628 C 133.27 201.568 133.24 200.518 133.24 199.458 C 133.24 194.798 133.73 190.138 134.7 185.568 C 135.64 181.188 137.04 176.918 138.87 172.838 C 142.41 164.978 147.47 157.908 153.75 152.018 C 159.89 146.258 167.03 141.668 174.81 138.468 C 182.69 135.208 191.1 133.438 199.62 133.248 C 204.65 133.318 209.67 133.918 214.58 135.018 C 219.15 136.058 223.6 137.568 227.86 139.528 C 235.91 143.258 243.13 148.578 249.06 155.188 C 254.75 161.528 259.21 168.888 262.22 176.868 C 265.21 184.758 266.75 193.138 266.75 201.578 C 266.75 201.598 266.75 201.618 266.75 201.638 L 266.75 202.268 C 266.75 202.508 266.74 202.748 266.72 202.988 C 266.07 211.508 263.89 219.838 260.29 227.588 C 256.78 235.158 251.89 242.018 245.89 247.828 C 239.79 253.708 232.63 258.378 224.79 261.578 C 220.73 263.238 216.51 264.508 212.21 265.358 C 207.7 266.258 203.11 266.718 198.5 266.748 C 194.49 266.708 190.5 266.238 186.58 265.348 C 182.69 264.468 178.88 263.218 175.22 261.618 C 167.76 258.358 160.93 253.818 155.02 248.218 C 148.89 242.458 143.84 235.648 140.1 228.118 C 136.15 220.168 133.84 211.488 133.32 202.628 Z  M 153.29 201.578 C 153.26 200.878 153.24 200.168 153.24 199.458 C 153.24 196.188 153.58 192.938 154.26 189.748 C 154.9 186.748 155.86 183.828 157.11 181.038 C 159.56 175.588 163.07 170.688 167.43 166.608 C 171.8 162.508 176.89 159.238 182.44 156.958 C 187.92 154.688 193.77 153.428 199.7 153.248 C 203.22 153.328 206.73 153.758 210.18 154.528 C 213.38 155.258 216.49 156.308 219.47 157.688 C 225.06 160.268 230.06 163.968 234.18 168.548 C 238.21 173.048 241.38 178.268 243.51 183.928 C 245.65 189.568 246.75 195.538 246.75 201.568 L 246.75 201.788 C 246.25 207.808 244.69 213.688 242.15 219.168 C 239.67 224.508 236.23 229.348 231.99 233.448 C 227.73 237.558 222.72 240.828 217.23 243.068 C 214.35 244.238 211.37 245.138 208.32 245.738 C 205.1 246.378 201.83 246.718 198.54 246.748 C 196.01 246.708 193.48 246.408 191 245.848 C 188.34 245.248 185.74 244.388 183.24 243.298 C 177.89 240.958 172.98 237.698 168.75 233.678 C 164.34 229.538 160.7 224.638 158.01 219.228 C 155.27 213.718 153.67 207.718 153.29 201.578 Z " fill-rule="evenodd" fill="rgb(0,0,0)"/><g><defs><filter id="RqQMiqsPVKW6JtWyauuH28QB0YBfYS2y" x="-200%" y="-200%" width="400%" height="400%" filterUnits="objectBoundingBox" color-interpolation-filters="sRGB"><feGaussianBlur xmlns="http://www.w3.org/2000/svg" stdDeviation="0"/></filter></defs><g filter="url(#RqQMiqsPVKW6JtWyauuH28QB0YBfYS2y)"><path d=" M 51.778 157.475 C 51.181 160.095 49.572 162.361 47.296 163.797 C 45.031 165.224 42.279 165.689 39.669 165.092 C 37.049 164.495 34.783 162.877 33.357 160.611 C 31.921 158.335 31.455 155.593 32.052 152.973 C 33.549 146.439 35.522 140.005 37.97 133.753 C 40.489 127.33 43.442 121.078 46.821 115.059 C 50.351 108.777 54.266 102.718 58.545 96.922 C 63.067 90.802 67.923 84.935 73.082 79.341 C 74.902 77.368 77.431 76.194 80.112 76.093 C 82.793 75.982 85.403 76.943 87.375 78.764 C 89.348 80.585 90.511 83.114 90.622 85.794 C 90.734 88.475 89.763 91.085 87.952 93.058 C 83.288 98.105 78.908 103.406 74.822 108.939 C 71.048 114.058 67.589 119.409 64.463 124.963 C 61.55 130.172 58.99 135.574 56.805 141.128 C 54.732 146.449 53.052 151.911 51.778 157.475 Z " fill="rgb(0,0,0)"/></g><defs><filter id="AbaNTheCrey3dkzsdvN0JH9T6qArW5uF" x="-200%" y="-200%" width="400%" height="400%" filterUnits="objectBoundingBox" color-interpolation-filters="sRGB"><feGaussianBlur xmlns="http://www.w3.org/2000/svg" stdDeviation="0"/></filter></defs><g filter="url(#AbaNTheCrey3dkzsdvN0JH9T6qArW5uF)"><path d=" M 83.749 169.335 C 86.019 170.695 87.669 172.905 88.319 175.475 C 88.969 178.045 88.569 180.765 87.209 183.045 C 85.859 185.325 83.649 186.965 81.079 187.615 C 78.509 188.265 75.779 187.875 73.499 186.515 C 67.739 183.075 61.969 179.645 56.199 176.215 C 49.659 172.335 43.109 168.445 36.559 164.575 C 34.719 163.485 33.269 161.825 32.439 159.855 C 31.609 157.885 31.429 155.695 31.929 153.615 L 31.999 153.325 C 32.629 150.745 34.249 148.525 36.519 147.145 C 38.779 145.755 41.499 145.335 44.079 145.955 C 46.649 146.585 48.879 148.205 50.259 150.475 C 51.639 152.735 52.069 155.455 51.439 158.035 L 51.369 158.325 L 46.749 147.355 C 53.309 151.245 59.859 155.125 66.419 159.025 C 72.199 162.455 77.969 165.895 83.749 169.335 Z " fill="rgb(0,0,0)"/></g><defs><filter id="qnr95WZYYTvyH8btWqat8Qc1uqKXgNZo" x="-200%" y="-200%" width="400%" height="400%" filterUnits="objectBoundingBox" color-interpolation-filters="sRGB"><feGaussianBlur xmlns="http://www.w3.org/2000/svg" stdDeviation="0"/></filter></defs><g filter="url(#qnr95WZYYTvyH8btWqat8Qc1uqKXgNZo)"><path d=" M 124.896 298.527 L 87.816 322.747 C 85.596 324.197 82.886 324.707 80.296 324.167 C 77.706 323.627 75.426 322.067 73.976 319.847 C 72.526 317.627 72.016 314.927 72.556 312.327 C 73.106 309.737 74.656 307.457 76.876 306.007 L 113.956 281.777 C 116.176 280.327 118.886 279.817 121.476 280.367 C 124.076 280.907 126.346 282.467 127.796 284.687 C 129.246 286.907 129.756 289.607 129.216 292.207 C 128.666 294.797 127.116 297.077 124.896 298.527 Z " fill="rgb(0,0,0)"/></g><defs><filter id="Nw6G8ZpkAJQUXqd6TxblCrlml88T0iXi" x="-200%" y="-200%" width="400%" height="400%" filterUnits="objectBoundingBox" color-interpolation-filters="sRGB"><feGaussianBlur xmlns="http://www.w3.org/2000/svg" stdDeviation="0"/></filter></defs><g filter="url(#Nw6G8ZpkAJQUXqd6TxblCrlml88T0iXi)"><path d=" M 167.029 83.005 L 167.019 83.165 C 166.919 85.085 166.279 86.935 165.169 88.495 C 164.049 90.055 162.509 91.255 160.729 91.965 C 154.219 94.565 147.939 97.715 141.969 101.385 C 136.089 105.005 130.539 109.145 125.379 113.735 C 123.399 115.505 120.799 116.405 118.149 116.255 C 115.509 116.105 113.029 114.905 111.259 112.925 C 109.499 110.945 108.589 108.345 108.739 105.705 C 108.889 103.055 110.089 100.575 112.069 98.805 C 118.109 93.425 124.599 88.595 131.489 84.345 C 137.959 80.375 144.739 76.925 151.759 74.025 C 154.909 72.065 158.909 72.015 162.109 73.895 C 165.309 75.785 167.209 79.295 167.029 83.005 Z " fill="rgb(0,0,0)"/></g><defs><filter id="w3KsQ8DyuamsRL4TM193p4cZCJYO2PiS" x="-200%" y="-200%" width="400%" height="400%" filterUnits="objectBoundingBox" color-interpolation-filters="sRGB"><feGaussianBlur xmlns="http://www.w3.org/2000/svg" stdDeviation="0"/></filter></defs><g filter="url(#w3KsQ8DyuamsRL4TM193p4cZCJYO2PiS)"><path d=" M 250.029 82.095 C 250.039 84.745 248.989 87.295 247.119 89.165 C 245.249 91.045 242.699 92.105 240.049 92.115 C 237.399 92.115 234.849 91.065 232.979 89.195 C 231.099 87.325 230.039 84.785 230.029 82.135 L 229.999 54.425 C 229.989 49.545 229.999 44.665 230.029 39.795 C 230.049 37.135 231.119 34.605 232.999 32.735 C 234.889 30.875 237.439 29.835 240.089 29.845 C 242.739 29.865 245.279 30.935 247.149 32.825 C 249.009 34.705 250.049 37.255 250.029 39.905 C 249.999 44.735 249.989 49.575 249.999 54.405 L 250.029 82.095 Z " fill="rgb(0,0,0)"/></g><defs><filter id="NbaLGZNKnWo1IPGeyRRUbvmtcLZYVszW" x="-200%" y="-200%" width="400%" height="400%" filterUnits="objectBoundingBox" color-interpolation-filters="sRGB"><feGaussianBlur xmlns="http://www.w3.org/2000/svg" stdDeviation="0"/></filter></defs><g filter="url(#NbaLGZNKnWo1IPGeyRRUbvmtcLZYVszW)"><path d=" M 236.029 49.015 C 230.719 47.865 225.359 46.955 219.959 46.275 C 214.139 45.555 208.289 45.185 202.419 45.185 C 196.069 45.205 189.729 45.595 183.429 46.365 C 175.979 47.275 168.589 48.535 161.259 50.135 C 158.669 50.695 155.959 50.215 153.729 48.785 C 151.499 47.345 149.929 45.085 149.359 42.495 C 148.799 39.905 149.279 37.195 150.709 34.965 C 152.149 32.735 154.409 31.165 156.999 30.595 C 164.929 28.865 172.939 27.495 180.999 26.505 C 188.099 25.645 195.249 25.205 202.399 25.185 C 209.099 25.185 215.799 25.605 222.449 26.425 C 229.089 27.265 235.699 28.425 242.239 29.905 C 244.459 30.405 246.449 31.655 247.869 33.435 C 249.279 35.225 250.049 37.445 250.029 39.725 C 250.029 39.725 250.029 39.725 250.029 39.725 C 250.029 39.765 250.029 39.805 250.029 39.845 C 250.029 43.225 248.329 46.375 245.509 48.215 C 242.689 50.065 239.119 50.365 236.029 49.015 Z " fill="rgb(0,0,0)"/></g><defs><filter id="l8uAXXNnvLQg0WY3WTKP65ShKGXAeQW4" x="-200%" y="-200%" width="400%" height="400%" filterUnits="objectBoundingBox" color-interpolation-filters="sRGB"><feGaussianBlur xmlns="http://www.w3.org/2000/svg" stdDeviation="0"/></filter></defs><g filter="url(#l8uAXXNnvLQg0WY3WTKP65ShKGXAeQW4)"><path d=" M 121.159 96.575 C 124.759 97.475 127.579 100.315 128.449 103.935 C 129.319 107.545 128.109 111.355 125.309 113.795 L 125.069 114.005 C 123.549 115.345 121.649 116.185 119.629 116.415 C 117.609 116.655 115.569 116.265 113.779 115.305 C 101.159 108.565 88.589 101.745 76.059 94.845 C 73.739 93.565 72.019 91.405 71.289 88.865 C 70.549 86.315 70.859 83.575 72.139 81.255 C 73.419 78.935 75.569 77.215 78.119 76.475 C 80.659 75.745 83.399 76.045 85.719 77.325 C 97.489 83.815 109.309 90.235 121.159 96.575 Z " fill="rgb(0,0,0)"/></g><defs><filter id="dGZW9f6fSdV5IzNCcDadwTQ6vhkYLOjd" x="-200%" y="-200%" width="400%" height="400%" filterUnits="objectBoundingBox" color-interpolation-filters="sRGB"><feGaussianBlur xmlns="http://www.w3.org/2000/svg" stdDeviation="0"/></filter></defs><g filter="url(#dGZW9f6fSdV5IzNCcDadwTQ6vhkYLOjd)"><path d=" M 89.539 221.375 C 90.079 223.965 89.579 226.675 88.129 228.895 C 86.679 231.115 84.409 232.675 81.819 233.225 C 79.219 233.765 76.509 233.265 74.289 231.815 C 72.069 230.365 70.509 228.095 69.969 225.505 C 68.039 216.355 67.059 207.025 67.049 197.675 C 67.059 190.545 67.619 183.425 68.739 176.385 C 69.159 173.765 70.599 171.425 72.749 169.865 C 74.889 168.305 77.569 167.665 80.189 168.085 C 82.809 168.505 85.159 169.945 86.709 172.085 C 88.269 174.235 88.909 176.915 88.489 179.535 C 87.539 185.535 87.059 191.595 87.049 197.675 C 87.059 205.635 87.889 213.575 89.539 221.375 Z " fill="rgb(0,0,0)"/></g><defs><filter id="Dm5q5rOMG9F5PPLH1fEPUZ8bcfatuljn" x="-200%" y="-200%" width="400%" height="400%" filterUnits="objectBoundingBox" color-interpolation-filters="sRGB"><feGaussianBlur xmlns="http://www.w3.org/2000/svg" stdDeviation="0"/></filter></defs><g filter="url(#Dm5q5rOMG9F5PPLH1fEPUZ8bcfatuljn)"><path d=" M 148.869 40.305 C 148.959 37.655 150.089 35.145 152.029 33.335 C 153.959 31.525 156.539 30.555 159.189 30.635 C 161.839 30.725 164.349 31.865 166.159 33.795 C 167.979 35.735 168.939 38.315 168.859 40.965 C 168.389 55.005 167.779 69.035 167.019 83.055 C 166.879 85.705 165.689 88.185 163.719 89.965 C 161.739 91.735 159.139 92.645 156.499 92.505 C 153.849 92.355 151.369 91.165 149.589 89.195 C 147.819 87.225 146.909 84.625 147.049 81.975 C 147.799 68.095 148.409 54.205 148.869 40.305 Z " fill="rgb(0,0,0)"/></g><defs><filter id="iiULz2fM2M0drSSjMVioUmUceK5MX1XT" x="-200%" y="-200%" width="400%" height="400%" filterUnits="objectBoundingBox" color-interpolation-filters="sRGB"><feGaussianBlur xmlns="http://www.w3.org/2000/svg" stdDeviation="0"/></filter></defs><g filter="url(#iiULz2fM2M0drSSjMVioUmUceK5MX1XT)"><path d=" M 74.519 214.945 C 76.799 213.595 79.529 213.195 82.099 213.845 C 84.669 214.505 86.869 216.145 88.229 218.425 C 89.579 220.705 89.979 223.435 89.329 226.005 C 88.669 228.575 87.029 230.775 84.749 232.135 L 46.959 254.615 C 44.689 255.965 41.959 256.365 39.389 255.715 C 36.819 255.065 34.609 253.415 33.259 251.135 C 31.899 248.855 31.509 246.125 32.159 243.555 C 32.809 240.985 34.459 238.785 36.739 237.425 L 74.519 214.945 Z " fill="rgb(0,0,0)"/></g><defs><filter id="7zZzrEaUA80dPMhzCvMyRiD2rVcRL9FR" x="-200%" y="-200%" width="400%" height="400%" filterUnits="objectBoundingBox" color-interpolation-filters="sRGB"><feGaussianBlur xmlns="http://www.w3.org/2000/svg" stdDeviation="0"/></filter></defs><g filter="url(#7zZzrEaUA80dPMhzCvMyRiD2rVcRL9FR)"><path d=" M 51.759 244.985 C 53.549 250.745 55.649 256.405 58.059 261.945 C 60.549 267.675 63.399 273.245 66.579 278.625 C 69.699 283.885 73.139 288.935 76.879 293.755 C 80.159 297.985 83.669 302.025 87.379 305.875 C 90.359 307.625 92.229 310.795 92.319 314.255 C 92.399 317.715 90.689 320.975 87.789 322.865 L 87.499 323.065 C 85.569 324.315 83.269 324.875 80.989 324.635 C 78.699 324.405 76.569 323.385 74.949 321.755 C 69.999 316.805 65.379 311.545 61.079 306.025 C 56.829 300.535 52.919 294.795 49.379 288.825 C 45.769 282.725 42.539 276.415 39.709 269.915 C 36.759 263.105 34.199 256.125 32.069 249.005 C 31.429 246.875 31.529 244.585 32.329 242.505 C 33.139 240.435 34.619 238.685 36.539 237.545 L 36.699 237.455 C 39.619 235.705 43.249 235.575 46.289 237.105 C 49.329 238.625 51.399 241.605 51.759 244.985 Z " fill="rgb(0,0,0)"/></g><defs><filter id="s657rwj2prNbONSJZKiqdTPKZqQI6xxW" x="-200%" y="-200%" width="400%" height="400%" filterUnits="objectBoundingBox" color-interpolation-filters="sRGB"><feGaussianBlur xmlns="http://www.w3.org/2000/svg" stdDeviation="0"/></filter></defs><g filter="url(#s657rwj2prNbONSJZKiqdTPKZqQI6xxW)"><path d=" M 170.439 359.625 C 170.529 362.275 169.559 364.855 167.749 366.795 C 165.939 368.735 163.439 369.875 160.789 369.965 C 158.139 370.055 155.559 369.095 153.619 367.285 C 151.679 365.475 150.539 362.965 150.449 360.315 C 149.929 345.105 149.409 329.895 148.889 314.685 C 148.799 312.035 149.769 309.455 151.579 307.525 C 153.389 305.585 155.899 304.445 158.549 304.355 C 161.189 304.265 163.769 305.235 165.709 307.045 C 167.649 308.855 168.789 311.365 168.879 314.015 C 169.389 329.215 169.909 344.425 170.439 359.625 Z " fill="rgb(0,0,0)"/></g><defs><filter id="JAQ91gJJLo5GILlNwyrvY9B4tISvRa06" x="-200%" y="-200%" width="400%" height="400%" filterUnits="objectBoundingBox" color-interpolation-filters="sRGB"><feGaussianBlur xmlns="http://www.w3.org/2000/svg" stdDeviation="0"/></filter></defs><g filter="url(#JAQ91gJJLo5GILlNwyrvY9B4tISvRa06)"><path d=" M 168.879 314.005 C 168.969 316.655 167.999 319.235 166.189 321.175 C 164.379 323.115 161.879 324.255 159.229 324.345 C 156.579 324.435 153.999 323.465 152.059 321.655 C 150.119 319.845 148.979 317.345 148.889 314.695 C 148.889 314.595 148.879 314.495 148.879 314.395 C 148.789 311.755 149.759 309.175 151.569 307.235 C 153.379 305.295 155.889 304.155 158.539 304.065 C 161.189 303.975 163.769 304.945 165.699 306.755 C 167.639 308.565 168.779 311.075 168.869 313.725 C 168.869 313.815 168.879 313.915 168.879 314.005 Z " fill="rgb(255,0,0)"/></g><defs><filter id="anM3CqXNReKu1N6Mq2Kv3hdNN2201qYy" x="-200%" y="-200%" width="400%" height="400%" filterUnits="objectBoundingBox" color-interpolation-filters="sRGB"><feGaussianBlur xmlns="http://www.w3.org/2000/svg" stdDeviation="0"/></filter></defs><g filter="url(#anM3CqXNReKu1N6Mq2Kv3hdNN2201qYy)"><path d=" M 113.169 297.765 C 111.149 296.055 109.899 293.605 109.679 290.955 C 109.469 288.315 110.309 285.695 112.029 283.675 C 113.749 281.655 116.199 280.395 118.839 280.185 C 121.479 279.965 124.109 280.815 126.129 282.535 C 128.989 284.975 131.959 287.295 135.009 289.495 C 137.919 291.605 140.919 293.585 143.989 295.435 C 146.979 297.235 150.029 298.915 153.159 300.455 C 156.229 301.985 159.359 303.375 162.549 304.635 C 164.359 305.345 165.919 306.575 167.039 308.165 C 168.159 309.765 168.799 311.645 168.859 313.595 L 168.869 313.725 C 168.989 317.365 167.109 320.805 163.969 322.665 C 160.829 324.525 156.909 324.525 153.769 322.665 C 150.559 321.355 147.389 319.925 144.269 318.375 C 140.659 316.585 137.119 314.645 133.659 312.565 C 130.119 310.425 126.659 308.135 123.299 305.715 C 119.819 303.205 116.439 300.555 113.169 297.765 Z " fill="rgb(0,0,0)"/></g><defs><filter id="Dno0v1mF9oImXqgcppYXdOhkxxhK5lVP" x="-200%" y="-200%" width="400%" height="400%" filterUnits="objectBoundingBox" color-interpolation-filters="sRGB"><feGaussianBlur xmlns="http://www.w3.org/2000/svg" stdDeviation="0"/></filter></defs><g filter="url(#Dno0v1mF9oImXqgcppYXdOhkxxhK5lVP)"><path d=" M 235.749 349.705 C 238.299 348.985 241.029 349.305 243.349 350.595 C 245.659 351.885 247.369 354.045 248.099 356.595 C 248.819 359.145 248.499 361.885 247.209 364.195 C 245.909 366.515 243.749 368.225 241.199 368.945 C 227.459 372.845 213.229 374.815 198.939 374.815 C 192.199 374.805 185.449 374.385 178.759 373.555 C 171.869 372.695 165.029 371.445 158.279 369.795 C 155.709 369.175 153.479 367.545 152.109 365.285 C 150.729 363.015 150.299 360.295 150.929 357.715 C 151.559 355.145 153.179 352.915 155.449 351.545 C 157.709 350.165 160.439 349.735 163.009 350.365 C 169.009 351.825 175.099 352.945 181.229 353.705 C 187.109 354.435 193.029 354.805 198.959 354.815 C 211.399 354.815 223.779 353.095 235.749 349.705 Z " fill="rgb(0,0,0)"/></g><defs><filter id="ATiqzpBOvdsGZCCbCTtW6yzdhTpcYVPI" x="-200%" y="-200%" width="400%" height="400%" filterUnits="objectBoundingBox" color-interpolation-filters="sRGB"><feGaussianBlur xmlns="http://www.w3.org/2000/svg" stdDeviation="0"/></filter></defs><g filter="url(#ATiqzpBOvdsGZCCbCTtW6yzdhTpcYVPI)"><path d=" M 227.549 315.255 C 227.469 312.605 228.449 310.025 230.269 308.105 C 232.089 306.175 234.609 305.045 237.259 304.975 C 239.909 304.895 242.479 305.875 244.409 307.695 C 246.339 309.515 247.459 312.035 247.539 314.685 C 247.959 329.355 248.329 344.025 248.649 358.695 C 248.709 361.345 247.709 363.915 245.879 365.835 C 244.049 367.745 241.529 368.855 238.879 368.915 C 236.229 368.975 233.659 367.975 231.739 366.145 C 229.829 364.305 228.719 361.785 228.659 359.135 C 228.339 344.505 227.969 329.885 227.549 315.255 Z " fill="rgb(0,0,0)"/></g><defs><filter id="Zk6kMLbAfx0m3VHkcsnY04LyIuI3Zp0Z" x="-200%" y="-200%" width="400%" height="400%" filterUnits="objectBoundingBox" color-interpolation-filters="sRGB"><feGaussianBlur xmlns="http://www.w3.org/2000/svg" stdDeviation="0"/></filter></defs><g filter="url(#Zk6kMLbAfx0m3VHkcsnY04LyIuI3Zp0Z)"><path d=" M 272.909 301.455 C 270.589 300.165 268.879 298.005 268.149 295.455 C 267.419 292.905 267.739 290.175 269.029 287.855 C 270.309 285.535 272.469 283.825 275.019 283.095 C 277.569 282.375 280.309 282.685 282.629 283.975 C 295.549 291.155 308.469 298.345 321.389 305.545 C 323.709 306.835 325.419 308.995 326.139 311.545 C 326.869 314.095 326.549 316.825 325.259 319.145 C 323.969 321.465 321.809 323.175 319.259 323.895 C 316.709 324.625 313.979 324.305 311.659 323.015 C 298.739 315.825 285.829 308.635 272.909 301.455 Z " fill="rgb(0,0,0)"/></g><defs><filter id="Y4gvggm7psxOzzN7e5JkYecPQdQKruTO" x="-200%" y="-200%" width="400%" height="400%" filterUnits="objectBoundingBox" color-interpolation-filters="sRGB"><feGaussianBlur xmlns="http://www.w3.org/2000/svg" stdDeviation="0"/></filter></defs><g filter="url(#Y4gvggm7psxOzzN7e5JkYecPQdQKruTO)"><path d=" M 272.569 301.265 C 270.249 299.975 268.539 297.825 267.809 295.275 C 267.089 292.725 267.399 289.985 268.689 287.665 C 269.979 285.355 272.139 283.635 274.689 282.915 C 277.239 282.185 279.969 282.495 282.289 283.785 C 282.399 283.855 282.519 283.915 282.629 283.975 C 284.939 285.265 286.659 287.425 287.379 289.975 C 288.109 292.525 287.789 295.255 286.499 297.575 C 285.219 299.895 283.059 301.605 280.509 302.335 C 277.959 303.055 275.219 302.745 272.899 301.455 C 272.789 301.395 272.679 301.325 272.569 301.265 Z " fill="rgb(255,0,0)"/></g><defs><filter id="g0Y0eMsyUbGg25j02lCCbovSNqlLvzgF" x="-200%" y="-200%" width="400%" height="400%" filterUnits="objectBoundingBox" color-interpolation-filters="sRGB"><feGaussianBlur xmlns="http://www.w3.org/2000/svg" stdDeviation="0"/></filter></defs><g filter="url(#g0Y0eMsyUbGg25j02lCCbovSNqlLvzgF)"><path d=" M 242.759 322.815 C 239.719 324.685 235.899 324.795 232.759 323.095 C 229.619 321.395 227.619 318.135 227.529 314.565 L 227.519 314.205 C 227.459 311.975 228.149 309.785 229.469 307.985 C 230.799 306.195 232.689 304.895 234.839 304.295 C 237.909 303.445 240.929 302.425 243.889 301.235 C 246.939 300.005 249.919 298.615 252.809 297.065 C 255.869 295.425 258.839 293.615 261.699 291.655 C 264.829 289.505 267.839 287.215 270.729 284.765 C 272.279 283.455 274.189 282.645 276.219 282.445 C 278.239 282.245 280.269 282.665 282.049 283.655 L 282.289 283.785 C 285.519 285.585 287.499 289.035 287.429 292.725 C 287.359 296.425 285.239 299.785 281.939 301.455 C 279.059 303.805 276.079 306.045 273.019 308.145 C 269.549 310.515 265.959 312.705 262.259 314.685 C 258.719 316.585 255.079 318.285 251.349 319.785 C 248.539 320.925 245.669 321.935 242.759 322.815 Z " fill="rgb(0,0,0)"/></g><defs><filter id="xo6xe8fhhecbKnm8CVe45UbLeNGqlJBo" x="-200%" y="-200%" width="400%" height="400%" filterUnits="objectBoundingBox" color-interpolation-filters="sRGB"><feGaussianBlur xmlns="http://www.w3.org/2000/svg" stdDeviation="0"/></filter></defs><g filter="url(#xo6xe8fhhecbKnm8CVe45UbLeNGqlJBo)"><path d=" M 348.789 243.035 C 349.649 240.525 351.469 238.455 353.849 237.285 C 356.229 236.115 358.979 235.935 361.489 236.795 C 363.989 237.645 366.059 239.465 367.229 241.845 C 368.399 244.225 368.579 246.975 367.719 249.485 C 365.189 256.925 362.299 264.235 359.069 271.395 C 356.069 278.045 352.699 284.525 348.959 290.795 C 345.469 296.665 341.589 302.305 337.349 307.655 C 333.319 312.745 328.919 317.505 324.169 321.925 C 322.229 323.725 319.649 324.685 316.999 324.595 C 314.349 324.495 311.849 323.355 310.039 321.405 C 308.239 319.465 307.269 316.885 307.369 314.235 C 307.469 311.585 308.609 309.085 310.549 307.275 C 314.559 303.555 318.269 299.535 321.669 295.245 C 325.359 290.585 328.729 285.675 331.779 280.565 C 335.119 274.945 338.149 269.135 340.839 263.175 C 343.809 256.585 346.459 249.865 348.789 243.035 Z " fill="rgb(0,0,0)"/></g><defs><filter id="3zVcZqkF7SbNkD109lh5zzacvcTJPP43" x="-200%" y="-200%" width="400%" height="400%" filterUnits="objectBoundingBox" color-interpolation-filters="sRGB"><feGaussianBlur xmlns="http://www.w3.org/2000/svg" stdDeviation="0"/></filter></defs><g filter="url(#3zVcZqkF7SbNkD109lh5zzacvcTJPP43)"><path d=" M 351.989 253.835 C 346.099 250.245 340.189 246.685 334.269 243.155 C 327.949 239.395 321.609 235.665 315.249 231.975 C 312.959 230.645 311.279 228.455 310.599 225.895 C 309.919 223.335 310.289 220.605 311.619 218.305 C 312.949 216.015 315.139 214.345 317.699 213.665 C 320.259 212.985 322.989 213.345 325.289 214.675 C 331.709 218.405 338.109 222.165 344.499 225.965 C 350.869 229.765 357.229 233.595 363.559 237.465 C 365.509 238.655 366.989 240.475 367.759 242.625 C 368.529 244.775 368.549 247.125 367.799 249.285 L 367.759 249.375 C 366.689 252.455 364.179 254.825 361.039 255.715 C 357.899 256.605 354.519 255.895 351.989 253.835 Z " fill="rgb(0,0,0)"/></g><defs><filter id="llkiO6Rkqx2deqrZPLWZletbXhi9fk8z" x="-200%" y="-200%" width="400%" height="400%" filterUnits="objectBoundingBox" color-interpolation-filters="sRGB"><feGaussianBlur xmlns="http://www.w3.org/2000/svg" stdDeviation="0"/></filter></defs><g filter="url(#llkiO6Rkqx2deqrZPLWZletbXhi9fk8z)"><path d=" M 326.309 185.975 C 323.479 188.115 319.719 188.595 316.439 187.235 C 313.169 185.875 310.849 182.865 310.369 179.355 L 310.359 179.275 C 310.089 177.315 310.409 175.325 311.279 173.545 C 312.139 171.765 313.519 170.285 315.219 169.285 C 323.539 164.435 331.869 159.605 340.219 154.795 C 344.109 152.565 347.999 150.315 351.879 148.055 C 354.569 146.005 358.109 145.445 361.289 146.575 C 364.479 147.705 366.879 150.375 367.669 153.655 L 367.679 153.695 L 367.689 153.735 C 368.189 155.825 368.009 158.025 367.169 160.005 C 366.319 161.985 364.859 163.635 362.999 164.725 C 358.739 167.205 354.469 169.675 350.189 172.135 C 342.209 176.725 334.259 181.335 326.309 185.975 Z " fill="rgb(0,0,0)"/></g><defs><filter id="wHn3clVv9NKUwAT6FXOhZAMj1zQG7ojc" x="-200%" y="-200%" width="400%" height="400%" filterUnits="objectBoundingBox" color-interpolation-filters="sRGB"><feGaussianBlur xmlns="http://www.w3.org/2000/svg" stdDeviation="0"/></filter></defs><g filter="url(#wHn3clVv9NKUwAT6FXOhZAMj1zQG7ojc)"><path d=" M 310.379 221.835 C 310.779 219.205 312.199 216.845 314.329 215.275 C 316.459 213.695 319.129 213.035 321.759 213.425 C 324.379 213.825 326.739 215.245 328.309 217.375 C 329.889 219.505 330.549 222.185 330.159 224.805 L 330.159 224.815 C 329.759 227.435 328.339 229.795 326.209 231.375 C 324.079 232.945 321.399 233.615 318.779 233.215 C 316.159 232.825 313.799 231.405 312.219 229.265 C 310.649 227.135 309.989 224.465 310.379 221.845 L 310.379 221.835 Z " fill="rgb(255,0,0)"/></g><defs><filter id="GTzLlWMCUwRJn9lJYxP9ELY0rCL4v3SX" x="-200%" y="-200%" width="400%" height="400%" filterUnits="objectBoundingBox" color-interpolation-filters="sRGB"><feGaussianBlur xmlns="http://www.w3.org/2000/svg" stdDeviation="0"/></filter></defs><g filter="url(#GTzLlWMCUwRJn9lJYxP9ELY0rCL4v3SX)"><path d=" M 310.479 180.105 C 310.079 177.485 310.739 174.805 312.309 172.675 C 313.879 170.535 316.239 169.105 318.859 168.705 C 321.479 168.305 324.159 168.965 326.289 170.535 C 328.429 172.105 329.849 174.465 330.249 177.085 C 331.439 184.885 332.039 192.765 332.039 200.655 C 332.039 208.765 331.409 216.855 330.149 224.865 C 329.739 227.485 328.299 229.835 326.159 231.405 C 324.009 232.965 321.339 233.605 318.719 233.195 C 316.099 232.785 313.749 231.345 312.189 229.205 C 310.629 227.065 309.979 224.385 310.389 221.765 C 311.489 214.785 312.039 207.725 312.039 200.655 C 312.039 193.775 311.519 186.905 310.479 180.105 Z " fill="rgb(0,0,0)"/></g><defs><filter id="9cHNDv30ryZmRtcF6wxFDxpACwTe08Wf" x="-200%" y="-200%" width="400%" height="400%" filterUnits="objectBoundingBox" color-interpolation-filters="sRGB"><feGaussianBlur xmlns="http://www.w3.org/2000/svg" stdDeviation="0"/></filter></defs><g filter="url(#9cHNDv30ryZmRtcF6wxFDxpACwTe08Wf)"><path d=" M 310.579 92.225 C 308.719 90.335 307.679 87.785 307.699 85.135 C 307.719 82.485 308.789 79.945 310.679 78.085 C 312.569 76.225 315.129 75.185 317.779 75.205 C 320.429 75.225 322.959 76.305 324.829 78.195 C 330.119 83.565 335.069 89.265 339.659 95.265 C 344.099 101.075 348.149 107.185 351.779 113.545 C 358.909 126.075 364.249 139.535 367.639 153.545 C 368.269 156.125 367.839 158.845 366.459 161.105 C 365.079 163.375 362.849 164.995 360.279 165.615 C 357.699 166.245 354.979 165.815 352.719 164.435 C 350.449 163.055 348.829 160.835 348.199 158.255 C 345.249 146.065 340.599 134.345 334.399 123.445 C 331.219 117.865 327.669 112.515 323.769 107.415 C 319.689 102.075 315.289 97.005 310.579 92.225 Z " fill="rgb(0,0,0)"/></g><defs><filter id="WKoikZkwMAQ5ztDFvv5jFpukVJSyBCED" x="-200%" y="-200%" width="400%" height="400%" filterUnits="objectBoundingBox" color-interpolation-filters="sRGB"><feGaussianBlur xmlns="http://www.w3.org/2000/svg" stdDeviation="0"/></filter></defs><g filter="url(#WKoikZkwMAQ5ztDFvv5jFpukVJSyBCED)"><path d=" M 320.539 94.715 C 313.239 98.645 305.939 102.595 298.649 106.555 C 294.039 109.055 289.439 111.575 284.849 114.105 C 282.529 115.385 279.799 115.695 277.249 114.955 C 274.699 114.225 272.549 112.505 271.269 110.185 C 269.989 107.865 269.679 105.125 270.409 102.575 C 271.149 100.035 272.869 97.875 275.189 96.595 C 279.819 94.035 284.459 91.495 289.099 88.975 C 296.979 84.695 304.869 80.435 312.769 76.195 C 314.689 75.155 316.909 74.785 319.069 75.125 C 321.229 75.465 323.219 76.515 324.729 78.095 L 324.869 78.235 C 327.269 80.745 328.189 84.335 327.309 87.685 C 326.429 91.045 323.859 93.715 320.539 94.715 Z " fill="rgb(0,0,0)"/></g><defs><filter id="SXjlidTlfoni4roQYzmBsHxAWd5YX7k0" x="-200%" y="-200%" width="400%" height="400%" filterUnits="objectBoundingBox" color-interpolation-filters="sRGB"><feGaussianBlur xmlns="http://www.w3.org/2000/svg" stdDeviation="0"/></filter></defs><g filter="url(#SXjlidTlfoni4roQYzmBsHxAWd5YX7k0)"><path d=" M 230.029 82.105 C 230.029 80.205 230.579 78.335 231.599 76.735 C 232.619 75.135 234.079 73.855 235.809 73.045 C 237.529 72.245 239.449 71.945 241.329 72.195 C 243.219 72.445 244.989 73.225 246.449 74.445 C 253.419 77.225 260.199 80.465 266.739 84.145 C 273.359 87.865 279.649 92.145 285.529 96.945 C 287.589 98.625 288.889 101.045 289.159 103.685 C 289.429 106.325 288.629 108.965 286.959 111.015 C 285.279 113.065 282.859 114.375 280.219 114.645 C 277.579 114.905 274.939 114.115 272.889 112.445 C 267.899 108.365 262.559 104.735 256.939 101.575 C 250.379 97.885 243.539 94.695 236.499 92.035 C 234.599 91.315 232.969 90.035 231.809 88.365 C 230.659 86.705 230.039 84.725 230.029 82.695 L 230.029 82.565 C 230.029 82.435 230.029 82.315 230.029 82.185 C 230.029 82.185 230.029 82.175 230.029 82.175 L 230.029 82.105 Z " fill="rgb(0,0,0)"/></g></g></g></svg>