<?xml version="1.0" encoding="iso-8859-1"?>
<!-- Generator: Adobe Illustrator 18.0.0, SVG Export Plug-In . SVG Version: 6.00 Build 0)  -->
<!DOCTYPE svg PUBLIC "-//W3C//DTD SVG 1.1//EN" "http://www.w3.org/Graphics/SVG/1.1/DTD/svg11.dtd">
<svg version="1.1" id="Capa_1" xmlns="http://www.w3.org/2000/svg" xmlns:xlink="http://www.w3.org/1999/xlink" x="0px" y="0px"
	 viewBox="0 0 58 58" style="enable-background:new 0 0 58 58;" xml:space="preserve">
<g>
	<path style="fill:#556080;" d="M29,0C12.984,0,0,12.984,0,29c0,16.016,12.984,29,29,29c26.688,0-0.203-16.043,5-21
		c5.545-5.282,24,2.688,24-8C58,12.984,45.016,0,29,0z M33.38,32.008c-1.439,0.009-3.581,0.156-4.38,0.918
		c-1.286,1.226-1.382,2.83-1.038,4.162c0.227,0.878-0.647,1.607-1.473,1.233c-2.267-1.026-3.777-3.438-3.442-6.149
		c0.32-2.585,2.391-4.718,4.967-5.103c2.79-0.417,5.289,1.127,6.324,3.459C34.644,31.217,34.135,32.003,33.38,32.008z"/>
	<circle style="fill:#DC691D;" cx="29" cy="8" r="4"/>
	<circle style="fill:#F7E6A1;" cx="29" cy="50" r="4"/>
	<circle style="fill:#26B99A;" cx="50" cy="27" r="4"/>
	<circle style="fill:#EBBA16;" cx="8" cy="29" r="4"/>
	<circle style="fill:#ED8A19;" cx="14.151" cy="14.151" r="4"/>
	<circle style="fill:#7383BF;" cx="42" cy="14.151" r="4"/>
	<circle style="fill:#EFCE4A;" cx="14.151" cy="43.849" r="4"/>
</g>
<g>
</g>
<g>
</g>
<g>
</g>
<g>
</g>
<g>
</g>
<g>
</g>
<g>
</g>
<g>
</g>
<g>
</g>
<g>
</g>
<g>
</g>
<g>
</g>
<g>
</g>
<g>
</g>
<g>
</g>
</svg>
