<?xml version="1.0" encoding="UTF-8" standalone="no"?><!-- Generator: Gravit.io --><svg xmlns="http://www.w3.org/2000/svg" xmlns:xlink="http://www.w3.org/1999/xlink" style="isolation:isolate" viewBox="0 0 400 400" width="400pt" height="400pt"><defs><clipPath id="_clipPath_P2DeSq2qRuATkQ1nO3jQz9B9hK0Dl9I1"><rect width="400" height="400"/></clipPath></defs><g clip-path="url(#_clipPath_P2DeSq2qRuATkQ1nO3jQz9B9hK0Dl9I1)"><rect x="29.054" y="77.25" width="334.853" height="246.5" transform="matrix(1,0,0,1,0,0)" fill="rgb(255,255,255)"/><path d=" M 25.07 77.75 C 25.07 75.76 25.86 73.85 27.27 72.45 C 28.68 71.04 30.59 70.25 32.57 70.25 C 34.56 70.25 36.47 71.04 37.88 72.45 C 39.28 73.85 40.07 75.76 40.07 77.75 L 40.07 323.25 C 40.07 325.24 39.28 327.15 37.88 328.55 C 36.47 329.96 34.56 330.75 32.57 330.75 C 30.59 330.75 28.68 329.96 27.27 328.55 C 25.86 327.15 25.07 325.24 25.07 323.25 L 25.07 77.75 Z " fill="rgb(0,0,0)"/><path d=" M 324.94 150.56 C 326.27 150.56 327.54 151.09 328.48 152.02 C 329.41 152.96 329.94 154.23 329.94 155.56 C 329.94 156.89 329.41 158.16 328.48 159.1 C 327.54 160.03 326.27 160.56 324.94 160.56 L 226.71 160.56 C 225.38 160.56 224.11 160.03 223.17 159.1 C 222.23 158.16 221.71 156.89 221.71 155.56 C 221.71 154.23 222.23 152.96 223.17 152.02 C 224.11 151.09 225.38 150.56 226.71 150.56 L 324.94 150.56 Z " fill="rgb(0,0,0)"/><path d=" M 324.905 276.92 C 326.235 276.92 327.505 277.45 328.445 278.38 C 329.375 279.32 329.905 280.59 329.905 281.92 C 329.905 283.25 329.375 284.52 328.445 285.46 C 327.505 286.39 326.235 286.92 324.905 286.92 L 226.675 286.92 C 225.345 286.92 224.075 286.39 223.135 285.46 C 222.195 284.52 221.675 283.25 221.675 281.92 C 221.675 280.59 222.195 279.32 223.135 278.38 C 224.075 277.45 225.345 276.92 226.675 276.92 L 324.905 276.92 Z " fill="rgb(0,0,0)"/><path d=" M 221.71 155.56 C 221.71 154.23 222.23 152.96 223.17 152.02 C 224.11 151.09 225.38 150.56 226.71 150.56 C 228.03 150.56 229.31 151.09 230.24 152.02 C 231.18 152.96 231.71 154.23 231.71 155.56 L 231.71 281.92 C 231.71 283.25 231.18 284.52 230.24 285.46 C 229.31 286.4 228.03 286.92 226.71 286.92 C 225.38 286.92 224.11 286.4 223.17 285.46 C 222.23 284.52 221.71 283.25 221.71 281.92 L 221.71 155.56 Z " fill="rgb(0,0,0)"/><path d=" M 319.9 155.56 C 319.9 154.23 320.42 152.96 321.36 152.02 C 322.3 151.09 323.57 150.56 324.9 150.56 C 326.22 150.56 327.5 151.09 328.43 152.02 C 329.37 152.96 329.9 154.23 329.9 155.56 L 329.9 281.92 C 329.9 283.25 329.37 284.52 328.43 285.46 C 327.5 286.4 326.22 286.92 324.9 286.92 C 323.57 286.92 322.3 286.4 321.36 285.46 C 320.42 284.52 319.9 283.25 319.9 281.92 L 319.9 155.56 Z " fill="rgb(0,0,0)"/><path d=" M 324.79 110.69 C 327.44 110.69 329.98 111.74 331.86 113.62 C 333.73 115.49 334.79 118.04 334.79 120.69 C 334.79 123.34 333.73 125.88 331.86 127.76 C 329.98 129.63 327.44 130.69 324.79 130.69 L 74.29 130.69 C 71.63 130.69 69.09 129.63 67.21 127.76 C 65.34 125.88 64.29 123.34 64.29 120.69 C 64.29 118.04 65.34 115.49 67.21 113.62 C 69.09 111.74 71.63 110.69 74.29 110.69 L 324.79 110.69 Z " fill="rgb(0,0,0)"/><path d=" M 195.56 158.07 C 197.55 158.07 199.46 158.86 200.87 160.26 C 202.27 161.67 203.06 163.58 203.06 165.57 C 203.06 167.55 202.27 169.46 200.87 170.87 C 199.46 172.28 197.55 173.07 195.56 173.07 L 71.42 173.07 C 69.43 173.07 67.52 172.28 66.11 170.87 C 64.71 169.46 63.92 167.55 63.92 165.57 C 63.92 163.58 64.71 161.67 66.11 160.26 C 67.52 158.86 69.43 158.07 71.42 158.07 L 195.56 158.07 Z " fill="rgb(0,0,0)"/><path d=" M 195.56 195.53 C 197.55 195.53 199.46 196.32 200.87 197.73 C 202.27 199.13 203.06 201.04 203.06 203.03 C 203.06 205.02 202.27 206.93 200.87 208.33 C 199.46 209.74 197.55 210.53 195.56 210.53 L 71.42 210.53 C 69.43 210.53 67.52 209.74 66.11 208.33 C 64.71 206.93 63.92 205.02 63.92 203.03 C 63.92 201.04 64.71 199.13 66.11 197.73 C 67.52 196.32 69.43 195.53 71.42 195.53 L 195.56 195.53 Z " fill="rgb(0,0,0)"/><path d=" M 324.91 278.98 L 316.82 284.86 L 226.67 160.75 L 234.76 154.87 L 324.91 278.98 Z " fill="rgb(0,0,0)"/><path d=" M 234.75 284.01 L 226.68 278.11 L 316.83 154.86 L 324.9 160.76 L 234.75 284.01 Z " fill="rgb(0,0,0)"/><path d=" M 367.43 69.25 C 369.41 69.25 371.32 70.04 372.73 71.45 C 374.14 72.85 374.93 74.76 374.93 76.75 C 374.93 78.74 374.14 80.65 372.73 82.05 C 371.32 83.46 369.41 84.25 367.43 84.25 L 32.57 84.25 C 30.59 84.25 28.68 83.46 27.27 82.05 C 25.86 80.65 25.07 78.74 25.07 76.75 C 25.07 74.76 25.86 72.85 27.27 71.45 C 28.68 70.04 30.59 69.25 32.57 69.25 L 367.43 69.25 Z " fill="rgb(0,0,0)"/><path d=" M 374.93 323.25 C 374.93 325.24 374.14 327.15 372.73 328.55 C 371.32 329.96 369.41 330.75 367.43 330.75 C 365.44 330.75 363.53 329.96 362.12 328.55 C 360.72 327.15 359.93 325.24 359.93 323.25 L 359.93 77.75 C 359.93 75.76 360.72 73.85 362.12 72.45 C 363.53 71.04 365.44 70.25 367.43 70.25 C 369.41 70.25 371.32 71.04 372.73 72.45 C 374.14 73.85 374.93 75.76 374.93 77.75 L 374.93 323.25 Z " fill="rgb(0,0,0)"/><path d=" M 32.57 330.75 C 30.58 330.75 28.67 329.96 27.27 328.55 C 25.86 327.15 25.07 325.24 25.07 323.25 C 25.07 321.26 25.86 319.35 27.27 317.95 C 28.67 316.54 30.58 315.75 32.57 315.75 L 367.43 315.75 C 369.42 315.75 371.33 316.54 372.73 317.95 C 374.14 319.35 374.93 321.26 374.93 323.25 C 374.93 325.24 374.14 327.15 372.73 328.55 C 371.33 329.96 369.42 330.75 367.43 330.75 L 32.57 330.75 Z " fill="rgb(0,0,0)"/><line x1="226.707" y1="155.561" x2="325.776" y2="155.561"/><line x1="325.776" y1="155.561" x2="325.776" y2="281.923"/><path d=" M 324.79 110.69 C 327.44 110.69 329.98 111.74 331.86 113.62 C 333.73 115.49 334.79 118.04 334.79 120.69 C 334.79 123.34 333.73 125.88 331.86 127.76 C 329.98 129.63 327.44 130.69 324.79 130.69 L 74.29 130.69 C 71.63 130.69 69.09 129.63 67.21 127.76 C 65.34 125.88 64.29 123.34 64.29 120.69 C 64.29 118.04 65.34 115.49 67.21 113.62 C 69.09 111.74 71.63 110.69 74.29 110.69 L 324.79 110.69 Z " fill="rgb(0,0,0)"/><path d=" M 195.56 158.07 C 197.55 158.07 199.46 158.86 200.87 160.26 C 202.27 161.67 203.06 163.58 203.06 165.57 C 203.06 167.55 202.27 169.46 200.87 170.87 C 199.46 172.28 197.55 173.07 195.56 173.07 L 71.42 173.07 C 69.43 173.07 67.52 172.28 66.11 170.87 C 64.71 169.46 63.92 167.55 63.92 165.57 C 63.92 163.58 64.71 161.67 66.11 160.26 C 67.52 158.86 69.43 158.07 71.42 158.07 L 195.56 158.07 Z " fill="rgb(0,0,0)"/><path d=" M 195.56 195.53 C 197.55 195.53 199.46 196.32 200.87 197.73 C 202.27 199.13 203.06 201.04 203.06 203.03 C 203.06 205.02 202.27 206.93 200.87 208.33 C 199.46 209.74 197.55 210.53 195.56 210.53 L 71.42 210.53 C 69.43 210.53 67.52 209.74 66.11 208.33 C 64.71 206.93 63.92 205.02 63.92 203.03 C 63.92 201.04 64.71 199.13 66.11 197.73 C 67.52 196.32 69.43 195.53 71.42 195.53 L 195.56 195.53 Z " fill="rgb(0,0,0)"/><path d=" M 195.56 233.05 C 197.55 233.05 199.46 233.84 200.87 235.25 C 202.27 236.65 203.06 238.56 203.06 240.55 C 203.06 242.54 202.27 244.45 200.87 245.85 C 199.46 247.26 197.55 248.05 195.56 248.05 L 71.42 248.05 C 69.43 248.05 67.52 247.26 66.11 245.85 C 64.71 244.45 63.92 242.54 63.92 240.55 C 63.92 238.56 64.71 236.65 66.11 235.25 C 67.52 233.84 69.43 233.05 71.42 233.05 L 195.56 233.05 Z " fill="rgb(0,0,0)"/><path d=" M 324.91 278.98 L 316.82 284.86 L 226.67 160.75 L 234.76 154.87 L 324.91 278.98 Z " fill="rgb(0,0,0)"/><path d=" M 234.75 284.01 L 226.68 278.11 L 316.83 154.86 L 324.9 160.76 L 234.75 284.01 Z " fill="rgb(0,0,0)"/></g></svg>