<?xml version="1.0" encoding="UTF-8" standalone="no"?><!-- Generator: Gravit.io --><svg xmlns="http://www.w3.org/2000/svg" xmlns:xlink="http://www.w3.org/1999/xlink" style="isolation:isolate" viewBox="0 0 400 400" width="400pt" height="400pt"><defs><clipPath id="_clipPath_QrfIIBGMc1MClgxHefgzGKL3kg6xMeMh"><rect width="400" height="400"/></clipPath></defs><g clip-path="url(#_clipPath_QrfIIBGMc1MClgxHefgzGKL3kg6xMeMh)"><path d=" M 133.17 161.91 L 36.17 202.91 C 34.34 203.68 32.27 203.7 30.43 202.95 C 28.59 202.2 27.12 200.75 26.34 198.92 C 25.57 197.09 25.55 195.02 26.3 193.18 C 27.05 191.34 28.5 189.87 30.33 189.09 L 127.33 148.09 C 129.16 147.32 131.23 147.3 133.07 148.05 C 134.91 148.8 136.38 150.25 137.16 152.08 C 137.93 153.91 137.95 155.98 137.2 157.82 C 136.45 159.66 135 161.13 133.17 161.91 Z " fill="rgb(0,0,0)"/><path d=" M 40.75 216 C 40.75 217.99 39.96 219.9 38.55 221.3 C 37.15 222.71 35.24 223.5 33.25 223.5 C 31.26 223.5 29.35 222.71 27.95 221.3 C 26.54 219.9 25.75 217.99 25.75 216 L 25.75 197 C 25.75 195.01 26.54 193.1 27.95 191.7 C 29.35 190.29 31.26 189.5 33.25 189.5 C 35.24 189.5 37.15 190.29 38.55 191.7 C 39.96 193.1 40.75 195.01 40.75 197 L 40.75 216 Z " fill="rgb(0,0,0)"/><path d=" M 127.488 164.02 C 129.338 163.29 131.408 163.33 133.228 164.12 C 135.058 164.91 136.488 166.4 137.228 168.24 C 137.958 170.09 137.918 172.16 137.128 173.98 C 136.338 175.81 134.848 177.24 133.008 177.98 L 52.008 209.98 C 50.158 210.71 48.088 210.67 46.268 209.88 C 44.438 209.09 43.008 207.6 42.268 205.76 C 41.538 203.91 41.578 201.84 42.368 200.02 C 43.158 198.19 44.648 196.76 46.488 196.02 L 127.488 164.02 Z " fill="rgb(0,0,0)"/><path d=" M 48.75 214 C 48.75 215.99 47.96 217.9 46.55 219.3 C 45.15 220.71 43.24 221.5 41.25 221.5 C 39.26 221.5 37.35 220.71 35.95 219.3 C 34.54 217.9 33.75 215.99 33.75 214 L 33.75 197 C 33.75 195.01 34.54 193.1 35.95 191.7 C 37.35 190.29 39.26 189.5 41.25 189.5 C 43.24 189.5 45.15 190.29 46.55 191.7 C 47.96 193.1 48.75 195.01 48.75 197 L 48.75 214 Z " fill="rgb(0,0,0)"/><path d=" M 46.35 212.92 C 44.51 212.15 43.06 210.68 42.31 208.84 C 41.56 207 41.56 204.93 42.33 203.1 C 43.1 201.26 44.57 199.81 46.41 199.06 C 48.25 198.31 50.32 198.31 52.15 199.08 L 133.15 233.08 C 134.99 233.85 136.44 235.32 137.19 237.16 C 137.94 239 137.94 241.07 137.17 242.9 C 136.4 244.74 134.93 246.19 133.09 246.94 C 131.25 247.69 129.18 247.69 127.35 246.92 L 46.35 212.92 Z " fill="rgb(0,0,0)"/><path d=" M 133.11 249.07 C 134.95 249.82 136.41 251.28 137.17 253.12 C 137.94 254.95 137.94 257.02 137.18 258.86 C 136.43 260.7 134.97 262.16 133.13 262.92 C 131.3 263.69 129.23 263.69 127.39 262.93 L 30.39 222.93 C 28.55 222.18 27.09 220.72 26.33 218.88 C 25.56 217.05 25.56 214.98 26.32 213.14 C 27.07 211.3 28.53 209.84 30.37 209.08 C 32.2 208.31 34.27 208.31 36.11 209.07 L 133.11 249.07 Z " fill="rgb(0,0,0)"/><path d=" M 125.44 252.95 L 41.44 218.95 C 39.59 218.21 38.12 216.76 37.34 214.93 C 36.57 213.1 36.55 211.03 37.3 209.19 C 38.04 207.34 39.49 205.87 41.32 205.09 C 43.15 204.32 45.22 204.3 47.06 205.05 L 131.06 239.05 C 132.91 239.79 134.38 241.24 135.16 243.07 C 135.93 244.9 135.95 246.97 135.2 248.81 C 134.46 250.66 133.01 252.13 131.18 252.91 C 129.35 253.68 127.28 253.7 125.44 252.95 Z " fill="rgb(0,0,0)"/><path d=" M 353.65 212.92 C 355.49 212.15 356.94 210.68 357.69 208.84 C 358.44 207 358.44 204.93 357.67 203.1 C 356.9 201.26 355.43 199.81 353.59 199.06 C 351.75 198.31 349.68 198.31 347.85 199.08 L 266.85 233.08 C 265.01 233.85 263.56 235.32 262.81 237.16 C 262.06 239 262.06 241.07 262.83 242.9 C 263.6 244.74 265.07 246.19 266.91 246.94 C 268.75 247.69 270.82 247.69 272.65 246.92 L 353.65 212.92 Z " fill="rgb(0,0,0)"/><path d=" M 272.512 164.02 C 270.662 163.29 268.592 163.33 266.772 164.12 C 264.942 164.91 263.512 166.4 262.772 168.24 C 262.042 170.09 262.082 172.16 262.872 173.98 C 263.662 175.81 265.152 177.24 266.992 177.98 L 347.992 209.98 C 349.842 210.71 351.912 210.67 353.732 209.88 C 355.562 209.09 356.992 207.6 357.732 205.76 C 358.462 203.91 358.422 201.84 357.632 200.02 C 356.842 198.19 355.352 196.76 353.512 196.02 L 272.512 164.02 Z " fill="rgb(0,0,0)"/><path d=" M 262.25 171 C 262.25 172.99 263.04 174.9 264.45 176.3 C 265.85 177.71 267.76 178.5 269.75 178.5 C 271.74 178.5 273.65 177.71 275.05 176.3 C 276.46 174.9 277.25 172.99 277.25 171 L 277.25 155 C 277.25 153.01 276.46 151.1 275.05 149.7 C 273.65 148.29 271.74 147.5 269.75 147.5 C 267.76 147.5 265.85 148.29 264.45 149.7 C 263.04 151.1 262.25 153.01 262.25 155 L 262.25 171 Z " fill="rgb(0,0,0)"/><path d=" M 266.83 161.91 L 363.83 202.91 C 365.66 203.68 367.73 203.7 369.57 202.95 C 371.41 202.2 372.88 200.75 373.66 198.92 C 374.43 197.09 374.45 195.02 373.7 193.18 C 372.95 191.34 371.5 189.87 369.67 189.09 L 272.67 148.09 C 270.84 147.32 268.77 147.3 266.93 148.05 C 265.09 148.8 263.62 150.25 262.84 152.08 C 262.07 153.91 262.05 155.98 262.8 157.82 C 263.55 159.66 265 161.13 266.83 161.91 Z " fill="rgb(0,0,0)"/><path d=" M 359.25 216 C 359.25 217.99 360.04 219.9 361.45 221.3 C 362.85 222.71 364.76 223.5 366.75 223.5 C 368.74 223.5 370.65 222.71 372.05 221.3 C 373.46 219.9 374.25 217.99 374.25 216 L 374.25 197 C 374.25 195.01 373.46 193.1 372.05 191.7 C 370.65 190.29 368.74 189.5 366.75 189.5 C 364.76 189.5 362.85 190.29 361.45 191.7 C 360.04 193.1 359.25 195.01 359.25 197 L 359.25 216 Z " fill="rgb(0,0,0)"/><path d=" M 266.89 249.07 C 265.05 249.82 263.59 251.28 262.83 253.12 C 262.06 254.95 262.06 257.02 262.82 258.86 C 263.57 260.7 265.03 262.16 266.87 262.92 C 268.7 263.69 270.77 263.69 272.61 262.93 L 369.61 222.93 C 371.45 222.18 372.91 220.72 373.67 218.88 C 374.44 217.05 374.44 214.98 373.68 213.14 C 372.93 211.3 371.47 209.84 369.63 209.08 C 367.8 208.31 365.73 208.31 363.89 209.07 L 266.89 249.07 Z " fill="rgb(0,0,0)"/><path d=" M 277.25 240 C 277.25 238.01 276.46 236.1 275.05 234.7 C 273.65 233.29 271.74 232.5 269.75 232.5 C 267.76 232.5 265.85 233.29 264.45 234.7 C 263.04 236.1 262.25 238.01 262.25 240 L 262.25 256 C 262.25 257.99 263.04 259.9 264.45 261.3 C 265.85 262.71 267.76 263.5 269.75 263.5 C 271.74 263.5 273.65 262.71 275.05 261.3 C 276.46 259.9 277.25 257.99 277.25 256 L 277.25 240 Z " fill="rgb(0,0,0)"/><path d=" M 351.25 214 C 351.25 215.99 352.04 217.9 353.45 219.3 C 354.85 220.71 356.76 221.5 358.75 221.5 C 360.74 221.5 362.65 220.71 364.05 219.3 C 365.46 217.9 366.25 215.99 366.25 214 L 366.25 197 C 366.25 195.01 365.46 193.1 364.05 191.7 C 362.65 190.29 360.74 189.5 358.75 189.5 C 356.76 189.5 354.85 190.29 353.45 191.7 C 352.04 193.1 351.25 195.01 351.25 197 L 351.25 214 Z " fill="rgb(0,0,0)"/><path d=" M 274.56 252.95 L 358.56 218.95 C 360.41 218.21 361.88 216.76 362.66 214.93 C 363.43 213.1 363.45 211.03 362.7 209.19 C 361.96 207.34 360.51 205.87 358.68 205.09 C 356.85 204.32 354.78 204.3 352.94 205.05 L 268.94 239.05 C 267.09 239.79 265.62 241.24 264.84 243.07 C 264.07 244.9 264.05 246.97 264.8 248.81 C 265.54 250.66 266.99 252.13 268.82 252.91 C 270.65 253.68 272.72 253.7 274.56 252.95 Z " fill="rgb(0,0,0)"/><g><path d=" M 251.25 119.5 C 253.24 119.5 255.15 120.29 256.55 121.7 C 257.96 123.1 258.75 125.01 258.75 127 C 258.75 128.99 257.96 130.9 256.55 132.3 C 255.15 133.71 253.24 134.5 251.25 134.5 L 234.25 134.5 C 232.26 134.5 230.35 133.71 228.95 132.3 C 227.54 130.9 226.75 128.99 226.75 127 C 226.75 125.01 227.54 123.1 228.95 121.7 C 230.35 120.29 232.26 119.5 234.25 119.5 L 251.25 119.5 Z " fill="rgb(0,0,0)"/><path d=" M 172.25 265.5 C 174.24 265.5 176.15 266.29 177.55 267.7 C 178.96 269.1 179.75 271.01 179.75 273 C 179.75 274.99 178.96 276.9 177.55 278.3 C 176.15 279.71 174.24 280.5 172.25 280.5 L 155.25 280.5 C 153.26 280.5 151.35 279.71 149.95 278.3 C 148.54 276.9 147.75 274.99 147.75 273 C 147.75 271.01 148.54 269.1 149.95 267.7 C 151.35 266.29 153.26 265.5 155.25 265.5 L 172.25 265.5 Z " fill="rgb(0,0,0)"/><path d=" M 244.65 123.43 C 245.6 121.68 247.2 120.38 249.11 119.81 C 251.02 119.24 253.07 119.46 254.82 120.4 C 256.57 121.35 257.87 122.95 258.44 124.86 C 259.01 126.77 258.79 128.82 257.85 130.57 L 178.85 276.57 C 177.9 278.32 176.3 279.62 174.39 280.19 C 172.48 280.76 170.43 280.54 168.68 279.6 C 166.93 278.65 165.63 277.05 165.06 275.14 C 164.49 273.23 164.71 271.18 165.65 269.43 L 244.65 123.43 Z " fill="rgb(0,0,0)"/><path d=" M 226.65 123.43 C 227.6 121.68 229.2 120.38 231.11 119.81 C 233.02 119.24 235.07 119.46 236.82 120.4 C 238.57 121.35 239.87 122.95 240.44 124.86 C 241.01 126.77 240.79 128.82 239.85 130.57 L 160.85 276.57 C 159.9 278.32 158.3 279.62 156.39 280.19 C 154.48 280.76 152.43 280.54 150.68 279.6 C 148.93 278.65 147.63 277.05 147.06 275.14 C 146.49 273.23 146.71 271.18 147.65 269.43 L 226.65 123.43 Z " fill="rgb(0,0,0)"/><path d=" M 175.82 267.11 C 174.87 268.85 173.26 270.14 171.35 270.7 C 169.44 271.26 167.38 271.03 165.64 270.07 C 163.9 269.12 162.6 267.5 162.05 265.6 C 161.49 263.69 161.72 261.63 162.68 259.89 L 232.68 132.39 C 233.63 130.65 235.24 129.35 237.15 128.8 C 239.06 128.24 241.12 128.47 242.86 129.43 C 244.6 130.38 245.9 131.99 246.45 133.9 C 247.01 135.81 246.78 137.87 245.82 139.61 L 175.82 267.11 Z " fill="rgb(0,0,0)"/></g><path d=" M 137.75 171 C 137.75 172.99 136.96 174.9 135.55 176.3 C 134.15 177.71 132.24 178.5 130.25 178.5 C 128.26 178.5 126.35 177.71 124.95 176.3 C 123.54 174.9 122.75 172.99 122.75 171 L 122.75 155 C 122.75 153.01 123.54 151.1 124.95 149.7 C 126.35 148.29 128.26 147.5 130.25 147.5 C 132.24 147.5 134.15 148.29 135.55 149.7 C 136.96 151.1 137.75 153.01 137.75 155 L 137.75 171 Z " fill="rgb(0,0,0)"/><path d=" M 122.75 240 C 122.75 238.01 123.54 236.1 124.95 234.7 C 126.35 233.29 128.26 232.5 130.25 232.5 C 132.24 232.5 134.15 233.29 135.55 234.7 C 136.96 236.1 137.75 238.01 137.75 240 L 137.75 256 C 137.75 257.99 136.96 259.9 135.55 261.3 C 134.15 262.71 132.24 263.5 130.25 263.5 C 128.26 263.5 126.35 262.71 124.95 261.3 C 123.54 259.9 122.75 257.99 122.75 256 L 122.75 240 Z " fill="rgb(0,0,0)"/></g></svg>